<svg style="max-height: 500px" xml:space="preserve" viewBox="274 56 452 510" xmlns:xlink="http://www.w3.org/1999/xlink" xmlns="http://www.w3.org/2000/svg" width="452" height="510"> <g transform="matrix(1,0,0,1,-1146.53,-829)"> <g transform="matrix(2.8947,0,0,2.8947,527.885,-1573.49)" id="Square"> <rect style="fill:none;" height="345.459" width="345.459" y="829.962" x="213.716"/> <clipPath id="_clip1"> <rect height="345.459" width="345.459" y="829.962" x="213.716"/> </clipPath> <g clip-path="url(#_clip1)"> <g transform="matrix(0.345459,0,0,0.345459,140.133,543.576)"> <rect height="1000" width="1000" y="829" x="213"/> </g> <g transform="matrix(1.39932,0,0,1.39932,-154.316,-390.322)"> <g transform="matrix(0.142094,0,0,0.142094,311.698,870.917)"> <g transform="matrix(1.74301,0,0,1.74301,507.079,677.836)"> <path style="fill-rule:nonzero;" d="M0,-18.547C-0.149,-15.062 -0.555,-11.663 -0.979,-8.204C-1.298,-5.604 -1.197,-2.186 0.748,-0.275C1.168,0.139 1.99,-0.018 2.123,-0.637C2.593,-2.842 1.812,-5.085 1.331,-7.268C0.5,-11.032 0.331,-14.713 0.215,-18.547C0.21,-18.686 0.006,-18.685 0,-18.547"/> </g> <g transform="matrix(-1.70111,0.379882,0.379882,1.70111,522.954,674.43)"> <path style="fill-rule:nonzero;" d="M0.833,-9.066C1.795,-5.905 2.063,-2.902 1.454,0.34C1.392,0.671 0.9,0.601 0.833,0.313C0.115,-2.725 0.21,-5.757 -0.144,-8.848C-0.218,-9.485 0.643,-9.691 0.833,-9.066"/> </g> <g transform="matrix(-1.74022,0.098432,0.098432,1.74022,494.925,671.374)"> <path style="fill-rule:nonzero;" d="M0.177,-10.815C1.012,-7.353 1.145,-3.784 0.891,-0.248C0.858,0.214 0.262,0.248 0.177,-0.208C-0.473,-3.693 -0.744,-7.253 -0.304,-10.788C-0.274,-11.03 0.121,-11.052 0.177,-10.815"/> </g> <g transform="matrix(1.74301,0,0,1.74301,-353.282,-603.961)"> <g opacity="0.5"> <g transform="matrix(1,0,0,1,608.707,691.962)"> <path d="M0,-2.002C-0.348,-1.39 -0.524,-0.728 -0.437,0C-0.29,-0.671 -0.146,-1.33 0,-2.002"/> </g> </g> </g> <g transform="matrix(1.74301,0,0,1.74301,528.239,577.083)"> <path d="M0,-30.565C-1.229,-30.274 -1.397,-27.985 -2.258,-26.049C-3.119,-24.114 -3.064,-18.738 -3.709,-15.512C-4.354,-12.287 -7.096,-1.634 -7.096,-3.794C-7.096,-4.278 -6.128,-4.6 -2.42,-4.116C1.605,-3.59 1.773,-3.632 1.773,-3.632C2.419,-4.708 3.171,-17.878 3.171,-17.878L5.645,-2.503L11.289,-1.213L15.32,0.238C15.32,0.238 12.418,-10.297 10.482,-13.954C8.547,-17.61 7.687,-24.115 7.473,-26.264C7.257,-28.414 6.827,-28.843 5.967,-29.705C5.106,-30.565 3.387,-28.2 3.387,-28.2C3.387,-28.2 1.004,-30.803 0,-30.565"/> </g> <g transform="matrix(1.74301,0,0,1.74301,517.732,151.602)"> <path d="M0,449.199C-0.122,449.014 -11.151,432.163 -16.718,422.852L-18.187,428.442L-27.902,411.303C-28.6,410.316 -29.238,409.25 -29.801,408.134L-30.591,406.561L-31.498,404.96C-34.687,399.55 -43.505,387.567 -47.887,382.141C-48.833,380.962 -50.283,379.442 -52.454,377.35L-58.801,371.39L-60.39,369.908L-60.404,369.85C-63.914,366.301 -66.273,362.455 -68.035,358.939C-68.525,361.342 -68.888,362.787 -68.961,363.072L-73.319,380.088L-86.287,368.244C-88.861,365.892 -109.766,346.471 -117.813,328.709C-126.57,339.219 -133.705,345.506 -134.579,346.265L-147.855,357.766L-151.765,340.644C-153.38,333.575 -160.977,297.432 -151.917,280.195C-146.084,269.1 -132.29,253.321 -121.21,241.516C-121.284,241.351 -121.359,241.184 -121.436,241.013C-126.283,230.339 -116.315,219.703 -106.307,213.841L-104.952,213.046C-118.789,209.419 -135.403,204.466 -141.928,200.149C-180.058,174.926 -205.554,140.755 -210.131,108.741C-211.044,102.352 -209.425,91.298 -204.564,82.531C-204.11,81.711 -203.519,80.937 -202.803,80.224C-198.543,71.163 -189.389,56.649 -174.471,56.649C-174.062,56.649 -173.647,56.66 -173.23,56.682C-166.837,57.028 -154.859,64.715 -132.474,79.415C-123.708,85.172 -113.887,91.621 -103.495,98.094C-99.544,86.719 -86.919,51.294 -78.865,39.208C-73.041,30.464 -67.318,27.189 -63.14,24.797C-59.978,22.99 -58.249,22.001 -55.635,18.085C-53.275,14.543 -51.233,10.893 -49.257,7.363C-43.71,-2.549 -37.98,-12.785 -26.596,-13.742C-25.403,-13.843 -24.224,-13.894 -23.091,-13.894C-6.529,-13.888 1.39,-3.46 5.646,2.142C5.87,2.439 6.179,2.846 6.509,3.271C6.743,2.921 6.966,2.586 7.15,2.307C11.171,-3.786 18.593,-15.032 34.852,-15.032C37.107,-15.032 39.497,-14.801 41.955,-14.345C52.361,-12.418 57.381,-3.178 62.694,6.604C64.749,10.394 66.855,14.278 69.394,18.087C72.006,22.004 73.736,22.992 76.876,24.785C81.076,27.189 86.799,30.464 92.628,39.212C101.089,51.913 114.669,90.587 117.813,99.71C126.347,94.709 134.521,89.717 141.83,85.254C162.79,72.454 177.934,63.207 185.874,62.869C186.354,62.849 186.827,62.839 187.293,62.839C203.736,62.839 210.746,75.195 213.146,81.066C213.53,81.537 213.864,82.028 214.144,82.532C218.903,91.109 220.549,102.188 219.715,108.697C215.711,139.925 189.577,174.967 151.512,200.149C145.048,204.424 128.756,209.137 118.357,211.864C118.033,214.102 117.538,217.144 116.952,220.498C120.421,222.602 137.806,233.995 131.693,247.449C128.213,255.138 128.141,256.906 129.271,264.428C129.498,265.939 129.856,267.257 130.236,268.652C132.166,275.753 132.803,282.206 120.985,289.297C118.368,290.867 114.847,293.596 111.128,296.547C103.771,315.316 95.244,333.57 91.48,340.642C87.643,347.88 79.346,358.227 73.287,365.783L73.021,366.116C72.02,367.365 71.101,368.511 70.312,369.511C68.309,372.054 66.385,375.889 64.35,379.95C61.677,385.283 58.914,390.799 55.029,395.344C53.216,397.468 51.061,399.334 48.779,401.309C45.221,404.389 41.191,407.877 37.783,412.99C32.701,420.611 18.309,448.045 18.165,448.318L9.831,464.231L0,449.199Z"/> </g> <g transform="matrix(1.74301,0,0,1.74301,578.479,971.401)"> <path style="fill:white;fill-rule:nonzero;" d="M0,-488.463C-15.657,-488.463 -23.99,-478.837 -28.515,-472.36C-33.442,-478.563 -41.958,-487.319 -57.941,-487.324C-59.162,-487.324 -60.428,-487.27 -61.707,-487.163C-74.729,-486.067 -81.144,-474.608 -86.803,-464.497C-88.756,-461.007 -90.768,-457.41 -93.063,-453.965C-95.27,-450.659 -96.423,-450 -99.504,-448.238C-103.974,-445.681 -110.063,-442.196 -116.292,-432.844C-123.844,-421.511 -134.861,-391.503 -139.992,-376.923C-149.142,-382.682 -157.806,-388.372 -165.627,-393.508C-189.105,-408.926 -200.71,-416.355 -207.914,-416.744C-208.382,-416.769 -208.856,-416.782 -209.322,-416.782C-221.622,-416.783 -232.568,-407.956 -240.235,-391.893C-240.982,-391.088 -241.615,-390.222 -242.123,-389.304C-246.778,-380.908 -249.214,-369.333 -248.045,-361.157C-243.346,-328.282 -217.342,-293.309 -178.487,-267.606C-173.541,-264.335 -163.084,-260.478 -147.343,-256.115C-156.176,-249.569 -163.342,-239.755 -159.685,-229.476C-170.645,-217.709 -183.757,-202.519 -189.507,-191.582C-199.074,-173.38 -191.291,-136.258 -189.633,-129.003L-186.871,-116.906L-184.576,-106.857L-176.785,-113.606L-167.407,-121.73C-166.613,-122.419 -160.829,-127.514 -153.344,-136.067C-144.34,-119.584 -127.156,-103.398 -123.226,-99.807L-114.063,-91.439L-106.451,-84.488L-103.894,-94.474L-101.635,-103.294C-100.588,-101.827 -99.406,-100.361 -98.061,-98.937L-98.028,-98.806L-96.684,-97.542L-95.756,-96.676L-89.425,-90.731C-87.394,-88.773 -85.998,-87.312 -85.157,-86.265C-80.929,-81.029 -72.116,-69.055 -69.017,-63.807C-68.936,-63.667 -68.839,-63.495 -68.74,-63.319L-68.523,-62.933L-68.173,-62.315L-67.418,-60.815C-66.809,-59.606 -66.122,-58.453 -65.372,-57.377L-59.481,-46.986L-51.979,-33.751L-50.418,-39.69C-44.693,-30.523 -37.536,-19.588 -37.436,-19.435L-30.495,-8.823L-24.726,0L-19.833,-9.339L-13.946,-20.581C-10.248,-27.651 1.257,-49.257 5.506,-55.63C8.682,-60.394 12.376,-63.591 15.948,-66.684C18.222,-68.652 20.566,-70.682 22.532,-72.985C26.66,-77.814 29.509,-83.501 32.265,-89.001C34.228,-92.916 36.082,-96.614 37.894,-98.915C38.684,-99.915 39.611,-101.072 40.622,-102.333L40.847,-102.613C46.985,-110.269 55.389,-120.749 59.365,-128.249C63.107,-135.281 71.521,-153.271 78.852,-171.881C82.242,-174.563 85.41,-176.998 87.725,-178.385C100.04,-185.774 100.928,-193.088 98.37,-202.496C98.015,-203.802 97.679,-205.036 97.479,-206.37C96.437,-213.307 96.429,-214.469 99.663,-221.616C104.982,-233.326 95.793,-244.611 85.504,-251.359C85.791,-253.047 86.047,-254.614 86.263,-256C98.209,-259.191 112.164,-263.505 118.366,-267.606C157.162,-293.271 183.817,-329.151 187.933,-361.246C188.804,-368.04 187.317,-379.718 181.997,-389.308C181.704,-389.836 181.366,-390.352 180.988,-390.85C178.184,-397.484 170.368,-410.592 152.441,-410.592C151.933,-410.592 151.416,-410.581 150.89,-410.558C142.54,-410.204 129.538,-402.485 105.365,-387.724C99.003,-383.838 91.982,-379.551 84.647,-375.211C79.819,-389.017 68.19,-421.074 60.352,-432.84C54.118,-442.196 48.029,-445.68 43.583,-448.225C40.478,-449.999 39.323,-450.657 37.115,-453.968C34.657,-457.657 32.585,-461.478 30.581,-465.174C25.136,-475.199 19.524,-485.528 7.667,-487.725C5.024,-488.214 2.444,-488.463 0,-488.463M-33.669,-330.9C-36.034,-330.9 -38.426,-331.005 -40.833,-331.204C-37.978,-330.846 -35.229,-330.649 -32.627,-330.649C-32.294,-330.649 -31.962,-330.652 -31.634,-330.659C-17.362,-330.949 -1.618,-334.595 13.192,-339.417C-0.832,-334.987 -15.935,-331.589 -30.397,-330.969C-31.481,-330.922 -32.572,-330.9 -33.669,-330.9M-58.188,-471.909C-58.13,-471.909 -58.074,-471.91 -58.018,-471.91C-57.799,-471.91 -57.584,-471.906 -57.371,-471.901C-57.364,-471.901 -57.357,-471.9 -57.351,-471.9C-57.357,-471.9 -57.364,-471.901 -57.371,-471.901C-57.563,-471.906 -57.747,-471.92 -57.944,-471.92C-58.021,-471.92 -58.109,-471.91 -58.188,-471.909M-0.369,-473.044C-0.305,-473.046 -0.24,-473.046 -0.175,-473.046C0.009,-473.046 0.196,-473.042 0.383,-473.039L0.396,-473.039L0.383,-473.039C0.257,-473.041 0.122,-473.058 0,-473.058C-0.127,-473.058 -0.244,-473.046 -0.369,-473.044M0,-482.274C2.081,-482.274 4.282,-482.058 6.54,-481.639C15.505,-479.979 19.966,-471.75 25.141,-462.224C27.222,-458.386 29.379,-454.417 31.967,-450.534C34.984,-446.009 37.173,-444.758 40.49,-442.864C44.623,-440.499 49.769,-437.562 55.201,-429.409C64.054,-416.12 78.883,-373.01 80.545,-368.137L81.257,-366.05C114.191,-385.147 141.015,-403.944 151.153,-404.375C151.59,-404.394 152.019,-404.403 152.441,-404.403C167.266,-404.403 173.463,-393.16 175.611,-387.643C175.996,-387.222 176.323,-386.778 176.585,-386.305C180.931,-378.473 182.581,-368.173 181.794,-362.033C178.128,-333.441 154.014,-298.609 114.953,-272.768C108.36,-268.409 90.159,-263.37 80.716,-260.945C80.428,-258.528 79.659,-253.729 78.679,-248.261L80.151,-247.398C82.126,-246.242 99.29,-235.758 94.024,-224.168C90.241,-215.808 90.149,-213.503 91.358,-205.45C91.612,-203.761 92.012,-202.293 92.398,-200.872C94.158,-194.399 94.563,-189.706 84.542,-183.693C81.627,-181.945 77.8,-178.954 73.698,-175.694C66.378,-156.918 57.763,-138.412 53.897,-131.148C50.193,-124.163 42,-113.945 36.018,-106.484C34.909,-105.101 33.894,-103.836 33.031,-102.744C30.832,-99.951 28.84,-95.978 26.731,-91.773C24.142,-86.604 21.463,-81.259 17.825,-77.004C16.163,-75.056 14.094,-73.264 11.902,-71.367C8.198,-68.161 3.999,-64.527 0.356,-59.063C-4.87,-51.224 -19.283,-23.729 -19.429,-23.452L-25.315,-12.211L-32.262,-22.831C-32.841,-23.713 -46.453,-44.541 -50.697,-52.136C-50.998,-52.674 -51.779,-53.257 -53.021,-54.132L-54.098,-50.038L-60.14,-60.697C-60.758,-61.558 -61.346,-62.518 -61.889,-63.595L-62.684,-65.176L-62.684,-65.183L-63.129,-65.966L-63.341,-66.343C-63.459,-66.554 -63.575,-66.759 -63.669,-66.923C-66.939,-72.47 -75.884,-84.632 -80.331,-90.139C-81.485,-91.578 -83.187,-93.315 -85.159,-95.214L-91.534,-101.202L-92.461,-102.067L-92.464,-102.079C-97.911,-107.32 -100.571,-113.52 -102.522,-118.069C-102.989,-119.156 -103.43,-120.184 -103.842,-121.04C-103.972,-121.309 -104.1,-121.592 -104.227,-121.89C-105.394,-113.65 -106.705,-108.443 -106.811,-108.03L-109.889,-96.009L-119.052,-104.378C-122.007,-107.077 -146.248,-129.633 -151.689,-147.749C-161.934,-134.726 -170.97,-126.833 -171.459,-126.408L-180.837,-118.284L-183.6,-130.38C-184.563,-134.6 -192.763,-172.086 -184.029,-188.702C-177.881,-200.396 -162.137,-217.899 -152.413,-228.181C-152.729,-228.935 -153.074,-229.726 -153.468,-230.597C-158.73,-242.188 -141.568,-252.67 -139.594,-253.826L-136.492,-255.644L-135.845,-254.433C-136.011,-256.464 -136.108,-258.198 -136.165,-259.544C-148.134,-262.613 -168.148,-268.187 -175.072,-272.768C-214.136,-298.609 -237.72,-332.66 -241.919,-362.033C-242.795,-368.161 -241.052,-378.473 -236.709,-386.305C-236.313,-387.02 -235.77,-387.673 -235.099,-388.268C-231.048,-397.081 -222.665,-410.594 -209.322,-410.593C-208.968,-410.593 -208.609,-410.584 -208.248,-410.564C-199.38,-410.085 -170.979,-388.685 -136.584,-367.511L-136.488,-368.137C-134.827,-373.01 -120,-416.12 -111.142,-429.413C-105.713,-437.562 -100.568,-440.499 -96.436,-442.864C-93.122,-444.758 -90.933,-446.009 -87.913,-450.534C-85.49,-454.17 -83.415,-457.877 -81.409,-461.463C-76.022,-471.086 -70.938,-480.175 -61.188,-480.995C-60.09,-481.088 -59.001,-481.135 -57.943,-481.135C-42.927,-481.13 -35.879,-471.863 -31.671,-466.322C-30.793,-465.164 -29.522,-463.489 -28.778,-462.825L-27.603,-462.825C-26.891,-463.645 -25.833,-465.245 -25.084,-466.377C-21.158,-472.326 -14.587,-482.274 0,-482.274"/> </g> <g transform="matrix(1.74301,0,0,1.74301,366.8,346.576)"> <path style="fill-rule:nonzero;" d="M0,-11.033C0.603,-10.836 1.25,-10.625 1.933,-10.402C2.618,-10.201 3.34,-9.989 4.083,-9.772C4.833,-9.563 5.609,-9.371 6.39,-9.166C6.463,-9.142 7.062,-8.986 7.134,-8.961C7.415,-8.883 7.635,-8.81 7.886,-8.734C8.03,-8.684 9.198,-8.326 9.335,-8.276C10.301,-7.969 11.26,-7.653 12.238,-7.378C13.211,-7.094 14.163,-6.806 15.091,-6.554C16.017,-6.306 16.914,-6.07 17.766,-5.846C18.619,-5.642 19.426,-5.45 20.172,-5.274C21.671,-4.942 22.924,-4.695 23.805,-4.542C24.685,-4.391 25.189,-4.318 25.189,-4.318C25.189,-4.318 24.695,-4.443 23.84,-4.682C22.986,-4.927 21.777,-5.3 20.343,-5.781C19.631,-6.031 18.859,-6.303 18.044,-6.593C17.236,-6.897 16.384,-7.222 15.507,-7.56C14.631,-7.9 13.742,-8.276 12.835,-8.647C11.93,-9.012 11.011,-9.425 10.09,-9.828C9.952,-9.888 8.845,-10.373 8.719,-10.445C8.504,-10.549 8.25,-10.647 8.072,-10.761C8.009,-10.796 7.498,-11.087 7.436,-11.123C6.594,-11.599 5.773,-12.084 4.993,-12.552C4.219,-13.028 3.478,-13.502 2.776,-13.945C2.095,-14.401 1.457,-14.838 0.864,-15.238C0.452,-15.541 0.073,-15.812 -0.28,-16.075C0.091,-15.941 0.478,-15.805 0.888,-15.655C1.604,-15.428 2.378,-15.179 3.199,-14.916C4.016,-14.683 4.879,-14.44 5.772,-14.187C6.664,-13.945 7.59,-13.727 8.523,-13.489L9.225,-13.315C9.5,-13.242 9.691,-13.179 9.93,-13.109L11.298,-12.698C12.212,-12.425 13.117,-12.141 14.047,-11.902C14.969,-11.657 15.87,-11.4 16.746,-11.186C17.624,-10.974 18.472,-10.773 19.276,-10.58C20.084,-10.409 20.849,-10.248 21.555,-10.099C22.971,-9.823 24.153,-9.616 24.982,-9.493C25.812,-9.371 26.287,-9.316 26.287,-9.316C26.287,-9.316 25.821,-9.423 25.013,-9.634C24.208,-9.848 23.065,-10.179 21.707,-10.603C21.034,-10.826 20.303,-11.065 19.529,-11.321C18.767,-11.595 17.961,-11.886 17.129,-12.185C16.301,-12.486 15.464,-12.834 14.606,-13.164C13.752,-13.487 12.885,-13.87 12.015,-14.24L10.715,-14.795C10.512,-14.89 10.254,-14.973 10.097,-15.077L9.496,-15.416C8.702,-15.868 7.915,-16.301 7.174,-16.74C6.445,-17.183 5.741,-17.614 5.073,-18.022C4.432,-18.446 3.828,-18.845 3.269,-19.215C2.741,-19.597 2.244,-19.94 1.838,-20.253C1.448,-20.565 1.074,-20.836 0.837,-21.059C0.712,-21.169 0.599,-21.265 0.503,-21.351C0.445,-21.417 0.395,-21.472 0.356,-21.516C0.301,-21.581 0.165,-21.712 0.18,-21.697L-4.077,-17.751C-4.077,-17.751 -3.951,-17.682 -3.714,-17.554C-3.584,-17.484 -3.422,-17.399 -3.238,-17.3L-6.724,-13.951C-6.724,-13.951 -6.504,-13.834 -6.105,-13.626C-6.086,-13.615 -6.07,-13.606 -6.049,-13.596C-6.022,-13.582 -5.987,-13.565 -5.958,-13.55L-9.373,-10.148C-9.373,-10.148 -9.12,-10.017 -8.685,-9.793L-12.021,-6.348C-12.021,-6.346 -11.802,-6.235 -11.413,-6.036L-14.668,-2.546C-14.668,-2.546 -14.118,-2.263 -13.152,-1.773C-12.188,-1.297 -10.808,-0.633 -9.14,0.128C-8.295,0.498 -7.394,0.909 -6.424,1.32C-5.441,1.722 -4.432,2.165 -3.349,2.574C-2.256,2.976 -1.176,3.436 -0.005,3.806C1.146,4.193 2.334,4.58 3.447,4.993C5.697,5.808 7.98,6.621 10.124,7.333C12.264,8.061 14.289,8.683 16.027,9.198C17.773,9.696 19.238,10.071 20.269,10.315C21.301,10.547 21.892,10.679 21.892,10.679C21.892,10.679 21.321,10.493 20.318,10.171C19.322,9.837 17.915,9.333 16.25,8.683C14.591,8.018 12.668,7.224 10.639,6.313C8.6,5.417 6.468,4.42 4.316,3.406C3.211,2.93 2.241,2.327 1.255,1.758C0.27,1.213 -0.65,0.572 -1.559,0.011C-2.462,-0.565 -3.304,-1.17 -4.116,-1.711C-4.917,-2.268 -5.658,-2.818 -6.348,-3.309C-6.735,-3.596 -7.097,-3.866 -7.442,-4.126C-6.771,-3.831 -6.058,-3.509 -5.292,-3.183C-4.492,-2.858 -3.667,-2.498 -2.781,-2.16C-2.462,-2.041 -2.126,-1.92 -1.776,-1.79C-1.4,-1.656 -1.007,-1.517 -0.602,-1.374C-0.176,-1.23 0.261,-1.087 0.71,-0.94C1.172,-0.796 1.647,-0.656 2.127,-0.519C2.345,-0.445 2.737,-0.33 2.956,-0.255C3.248,-0.164 3.517,-0.071 3.799,0.02C4.229,0.166 4.998,0.418 5.41,0.571C6.478,0.945 7.549,1.318 8.619,1.671C9.694,2.028 10.752,2.383 11.78,2.704C12.803,3.03 13.799,3.333 14.746,3.616C15.688,3.891 16.583,4.145 17.409,4.374C19.072,4.818 20.467,5.15 21.446,5.363C22.43,5.569 22.991,5.679 22.991,5.679C22.991,5.679 22.444,5.514 21.492,5.221C20.544,4.915 19.203,4.454 17.614,3.863C16.825,3.556 15.971,3.225 15.072,2.864C14.174,2.498 13.231,2.106 12.263,1.689C11.291,1.277 10.298,0.835 9.29,0.386C8.284,-0.061 7.264,-0.532 6.24,-1.006C5.823,-1.185 5.106,-1.527 4.727,-1.74C4.491,-1.868 4.244,-1.994 4.022,-2.124C3.836,-2.233 3.502,-2.428 3.316,-2.536C2.377,-3.057 1.491,-3.647 0.625,-4.178C-0.235,-4.718 -1.043,-5.28 -1.818,-5.789C-2.579,-6.313 -3.286,-6.824 -3.943,-7.286C-4.296,-7.545 -4.63,-7.792 -4.945,-8.026C-4.691,-7.917 -4.432,-7.803 -4.162,-7.688C-3.543,-7.438 -2.9,-7.162 -2.213,-6.896C-1.803,-6.739 -1.359,-6.584 -0.888,-6.411C-0.397,-6.245 0.122,-6.071 0.665,-5.888C1.222,-5.716 1.8,-5.538 2.396,-5.356C3.002,-5.179 3.628,-5.012 4.258,-4.842C4.404,-4.794 4.9,-4.657 5.045,-4.609C5.331,-4.523 5.575,-4.442 5.842,-4.356C6.128,-4.258 7.097,-3.954 7.372,-3.852C8.389,-3.513 9.405,-3.17 10.43,-2.853C11.452,-2.533 12.458,-2.213 13.435,-1.926C14.41,-1.638 15.357,-1.369 16.255,-1.116C17.155,-0.875 18.005,-0.653 18.791,-0.449C20.372,-0.062 21.695,0.226 22.625,0.41C23.558,0.589 24.089,0.681 24.089,0.681C24.089,0.681 23.57,0.536 22.666,0.269C21.765,-0.006 20.49,-0.422 18.979,-0.958C18.228,-1.236 17.416,-1.539 16.559,-1.865C15.705,-2.2 14.809,-2.558 13.885,-2.935C12.961,-3.31 12.019,-3.722 11.062,-4.131C10.106,-4.538 9.138,-4.978 8.165,-5.416C7.889,-5.537 6.976,-5.95 6.723,-6.094C6.498,-6.207 6.247,-6.32 6.048,-6.441C5.923,-6.514 5.5,-6.757 5.377,-6.83C4.485,-7.328 3.632,-7.865 2.809,-8.364C1.992,-8.873 1.217,-9.39 0.48,-9.867C-0.242,-10.357 -0.915,-10.831 -1.54,-11.262C-1.891,-11.519 -2.219,-11.761 -2.532,-11.993C-2.246,-11.874 -1.952,-11.756 -1.645,-11.633C-1.147,-11.438 -0.595,-11.249 0,-11.033"/> </g> <g transform="matrix(1.74301,0,0,1.74301,685.605,342.273)"> <path style="fill-rule:nonzero;" d="M0,-10.658C-0.629,-10.476 -1.305,-10.277 -2.017,-10.072C-2.731,-9.887 -3.482,-9.69 -4.259,-9.494C-5.04,-9.303 -5.848,-9.129 -6.66,-8.943C-6.737,-8.922 -7.359,-8.78 -7.436,-8.757C-7.728,-8.684 -7.956,-8.615 -8.219,-8.546C-8.369,-8.5 -9.586,-8.17 -9.73,-8.12C-10.736,-7.837 -11.738,-7.545 -12.757,-7.291C-13.771,-7.032 -14.765,-6.764 -15.73,-6.537C-16.695,-6.311 -17.629,-6.096 -18.515,-5.895C-19.403,-5.712 -20.243,-5.54 -21.02,-5.384C-22.578,-5.09 -23.88,-4.876 -24.793,-4.746C-25.709,-4.62 -26.23,-4.562 -26.23,-4.562C-26.23,-4.562 -25.716,-4.676 -24.826,-4.895C-23.937,-5.118 -22.675,-5.465 -21.179,-5.91C-20.434,-6.146 -19.63,-6.402 -18.778,-6.674C-17.935,-6.963 -17.045,-7.268 -16.126,-7.589C-15.21,-7.911 -14.279,-8.269 -13.33,-8.622C-12.384,-8.969 -11.422,-9.364 -10.459,-9.751C-10.313,-9.806 -9.155,-10.269 -9.021,-10.341C-8.796,-10.441 -8.532,-10.534 -8.343,-10.645C-8.276,-10.678 -7.741,-10.964 -7.676,-10.998C-6.79,-11.462 -5.927,-11.934 -5.104,-12.391C-4.289,-12.86 -3.509,-13.324 -2.769,-13.758C-2.05,-14.206 -1.378,-14.636 -0.753,-15.03C-0.316,-15.327 0.084,-15.596 0.457,-15.853C0.07,-15.729 -0.334,-15.601 -0.764,-15.461C-1.511,-15.248 -2.317,-15.018 -3.173,-14.774C-4.025,-14.561 -4.926,-14.34 -5.854,-14.107C-6.784,-13.889 -7.746,-13.691 -8.718,-13.478L-9.448,-13.321C-9.734,-13.256 -9.935,-13.195 -10.183,-13.133L-11.609,-12.755C-12.563,-12.501 -13.506,-12.238 -14.476,-12.022C-15.436,-11.802 -16.373,-11.565 -17.285,-11.372C-18.199,-11.184 -19.081,-11.003 -19.917,-10.832C-20.758,-10.683 -21.554,-10.541 -22.286,-10.411C-23.758,-10.172 -24.984,-10 -25.846,-9.899C-26.707,-9.801 -27.2,-9.761 -27.2,-9.761C-27.2,-9.761 -26.714,-9.852 -25.873,-10.046C-25.034,-10.239 -23.842,-10.542 -22.427,-10.935C-21.724,-11.142 -20.962,-11.367 -20.155,-11.605C-19.358,-11.862 -18.518,-12.136 -17.646,-12.417C-16.782,-12.703 -15.905,-13.031 -15.01,-13.344C-14.118,-13.649 -13.208,-14.016 -12.3,-14.37L-10.939,-14.898C-10.725,-14.989 -10.456,-15.07 -10.29,-15.169L-9.659,-15.5C-8.825,-15.94 -7.997,-16.36 -7.217,-16.789C-6.451,-17.224 -5.708,-17.645 -5.005,-18.044C-4.331,-18.459 -3.692,-18.852 -3.104,-19.216C-2.547,-19.592 -2.021,-19.929 -1.592,-20.238C-1.177,-20.551 -0.783,-20.815 -0.532,-21.039C-0.398,-21.148 -0.278,-21.245 -0.177,-21.33C-0.114,-21.395 -0.061,-21.45 -0.02,-21.496C0.039,-21.558 0.187,-21.688 0.169,-21.675L4.432,-17.459C4.432,-17.459 4.3,-17.393 4.053,-17.267C3.915,-17.199 3.745,-17.116 3.552,-17.02L7.04,-13.445C7.04,-13.445 6.81,-13.334 6.39,-13.133C6.37,-13.122 6.353,-13.113 6.331,-13.104C6.303,-13.09 6.266,-13.072 6.235,-13.058L9.648,-9.433C9.648,-9.433 9.384,-9.307 8.925,-9.091L12.256,-5.421C12.256,-5.421 12.025,-5.313 11.617,-5.119L14.863,-1.407C14.863,-1.407 14.286,-1.136 13.271,-0.662C12.262,-0.202 10.813,0.44 9.064,1.169C8.181,1.525 7.236,1.919 6.22,2.31C5.194,2.69 4.138,3.115 3.006,3.504C1.863,3.879 0.734,4.319 -0.489,4.661C-1.691,5.024 -2.93,5.385 -4.092,5.775C-6.441,6.54 -8.826,7.304 -11.063,7.969C-13.298,8.647 -15.408,9.221 -17.22,9.697C-19.039,10.154 -20.565,10.494 -21.637,10.709C-22.712,10.914 -23.324,11.03 -23.324,11.03C-23.324,11.03 -22.729,10.858 -21.684,10.558C-20.645,10.247 -19.174,9.772 -17.434,9.158C-15.698,8.526 -13.688,7.77 -11.563,6.898C-9.427,6.039 -7.192,5.082 -4.936,4.106C-3.779,3.652 -2.759,3.061 -1.723,2.507C-0.686,1.977 0.286,1.346 1.242,0.795C2.193,0.233 3.083,-0.364 3.937,-0.896C4.785,-1.446 5.569,-1.987 6.298,-2.472C6.708,-2.756 7.089,-3.022 7.453,-3.281C6.752,-2.995 6.006,-2.687 5.203,-2.38C4.366,-2.07 3.502,-1.724 2.575,-1.405C2.243,-1.292 1.894,-1.179 1.528,-1.055C1.132,-0.929 0.723,-0.801 0.3,-0.667C-0.144,-0.533 -0.602,-0.397 -1.068,-0.262C-1.552,-0.128 -2.045,0.001 -2.547,0.127C-2.772,0.196 -3.182,0.301 -3.411,0.369C-3.714,0.456 -3.997,0.54 -4.289,0.626C-4.739,0.765 -5.54,0.999 -5.97,1.143C-7.088,1.49 -8.206,1.843 -9.321,2.172C-10.441,2.506 -11.548,2.835 -12.62,3.133C-13.688,3.436 -14.726,3.717 -15.713,3.978C-16.695,4.23 -17.627,4.461 -18.487,4.67C-20.22,5.073 -21.671,5.371 -22.689,5.559C-23.711,5.736 -24.293,5.832 -24.293,5.832C-24.293,5.832 -23.724,5.681 -22.73,5.408C-21.743,5.124 -20.342,4.692 -18.682,4.135C-17.854,3.847 -16.966,3.531 -16.024,3.189C-15.086,2.841 -14.099,2.467 -13.083,2.071C-12.066,1.677 -11.027,1.252 -9.97,0.822C-8.918,0.395 -7.85,-0.056 -6.776,-0.512C-6.341,-0.684 -5.59,-1.014 -5.188,-1.22C-4.941,-1.345 -4.684,-1.467 -4.45,-1.594C-4.254,-1.701 -3.901,-1.89 -3.707,-1.995C-2.721,-2.502 -1.786,-3.081 -0.872,-3.599C0.032,-4.132 0.886,-4.683 1.702,-5.184C2.507,-5.699 3.254,-6.205 3.947,-6.658C4.32,-6.913 4.674,-7.158 5.007,-7.392C4.739,-7.284 4.469,-7.176 4.187,-7.067C3.539,-6.829 2.867,-6.565 2.146,-6.313C1.72,-6.165 1.256,-6.021 0.765,-5.857C0.252,-5.703 -0.291,-5.539 -0.858,-5.369C-1.437,-5.209 -2.043,-5.044 -2.664,-4.877C-3.295,-4.714 -3.946,-4.562 -4.603,-4.409C-4.754,-4.363 -5.271,-4.24 -5.423,-4.193C-5.721,-4.115 -5.977,-4.038 -6.255,-3.959C-6.554,-3.868 -7.563,-3.585 -7.851,-3.49C-8.912,-3.174 -9.972,-2.851 -11.04,-2.559C-12.107,-2.262 -13.155,-1.967 -14.176,-1.702C-15.19,-1.439 -16.178,-1.19 -17.114,-0.959C-18.049,-0.742 -18.935,-0.541 -19.752,-0.356C-21.399,-0.009 -22.773,0.245 -23.741,0.405C-24.71,0.558 -25.262,0.635 -25.262,0.635C-25.262,0.635 -24.72,0.503 -23.777,0.257C-22.839,0.004 -21.509,-0.385 -19.929,-0.888C-19.146,-1.15 -18.298,-1.436 -17.401,-1.743C-16.509,-2.06 -15.572,-2.4 -14.605,-2.761C-13.638,-3.116 -12.653,-3.509 -11.651,-3.899C-10.65,-4.286 -9.637,-4.711 -8.617,-5.129C-8.327,-5.245 -7.372,-5.642 -7.106,-5.782C-6.869,-5.892 -6.607,-6.001 -6.397,-6.118C-6.265,-6.19 -5.821,-6.426 -5.691,-6.495C-4.754,-6.982 -3.857,-7.508 -2.987,-7.997C-2.128,-8.496 -1.312,-9.005 -0.534,-9.47C0.228,-9.952 0.938,-10.42 1.598,-10.843C1.967,-11.097 2.314,-11.335 2.646,-11.562C2.346,-11.452 2.039,-11.34 1.717,-11.223C1.196,-11.038 0.621,-10.862 0,-10.658"/> </g> <g transform="matrix(1.74301,0,0,1.74301,359.22,349.814)"> <path style="fill-rule:nonzero;" d="M0,-25.298C0,-25.298 49.091,-3.434 90.756,-3.023C132.041,-2.614 194.791,-29.703 194.791,-29.703L197.385,-23.371C197.385,-23.371 131.183,2.753 88.693,3.58C46.204,4.405 -3.299,-19.523 -3.299,-19.523L0,-25.298"/> </g> <g transform="matrix(1.74301,0,0,1.74301,375.35,601.549)"> <path style="fill:rgb(204,206,208);" d="M0,105.064C-3.092,102.241 -30.271,76.976 -32.399,59.674C-34.685,41.077 -27.365,0.593 -27.053,-1.122L-26.506,-4.114L-23.463,-4.176C-23.463,-4.176 -23.065,-4.185 -22.383,-4.185C-5.519,-4.185 -3.25,-0.662 -2.396,0.665C0.375,4.977 9.597,35.444 10.346,59.336C11.101,83.48 6.324,102.443 6.12,103.238L4.581,109.249L0,105.064Z"/> </g> <g transform="matrix(1.74301,0,0,1.74301,336.337,804.056)"> <path style="fill-rule:nonzero;" d="M0,-124.092C-0.73,-124.092 -1.155,-124.083 -1.155,-124.083L-7.236,-123.955L-8.334,-117.972C-8.651,-116.235 -16.067,-75.209 -13.714,-56.055C-12.677,-47.626 -6.747,-37.265 4.414,-24.376C12.162,-15.43 19.56,-8.652 19.871,-8.367L29.033,0L32.111,-12.02C32.32,-12.836 37.223,-32.297 36.452,-56.961C35.707,-80.71 26.606,-112.107 23.122,-117.53C21.03,-120.778 16.65,-124.092 0,-124.092M0,-116.643C3.491,-116.643 14.977,-116.418 16.854,-113.501C19.071,-110.053 28.256,-80.622 29.005,-56.729C29.752,-32.837 24.895,-13.868 24.895,-13.868C24.895,-13.868 -4.298,-40.529 -6.32,-56.963C-8.562,-75.21 -1.005,-116.635 -1.005,-116.635C-1.005,-116.635 -0.635,-116.643 0,-116.643"/> </g> <g transform="matrix(1.74301,0,0,1.74301,264.793,570.533)"> <path style="fill:rgb(204,206,208);" d="M0,98.777C-0.932,94.695 -8.875,58.449 -0.765,43.018C7.956,26.431 37.035,-2.668 38.268,-3.899L40.423,-6.049L42.959,-4.366C49.695,0.106 57.688,6.509 57.512,11.618C57.337,16.731 47.563,47.016 34.556,67.092C21.42,87.363 6.691,100.225 6.07,100.763L1.381,104.826L0,98.777Z"/> </g> <g transform="matrix(1.74301,0,0,1.74301,334.421,765.231)"> <path style="fill-rule:nonzero;" d="M0,-122.538L-4.31,-118.239C-5.56,-116.992 -35.028,-87.502 -44.009,-70.419C-47.959,-62.902 -48.99,-51.009 -47.161,-34.058C-45.891,-22.292 -43.672,-12.507 -43.579,-12.097L-40.816,0L-31.438,-8.124C-30.801,-8.676 -15.685,-21.876 -2.265,-42.584C10.664,-62.539 21.067,-93.523 21.288,-99.959C21.438,-104.322 18.718,-108.484 12.193,-113.871C8.693,-116.761 5.218,-119.074 5.072,-119.172L0,-122.538ZM0.952,-112.965C0.952,-112.965 13.984,-104.313 13.842,-100.214C13.702,-96.116 4.481,-66.697 -8.517,-46.636C-21.516,-26.576 -36.316,-13.755 -36.316,-13.755C-36.316,-13.755 -45.118,-52.295 -37.415,-66.952C-28.859,-83.226 0.952,-112.965 0.952,-112.965"/> </g> <g transform="matrix(1.74301,0,0,1.74301,338.211,684.236)"> <path style="fill:rgb(204,206,208);" d="M0,-86.093C0,-86.093 -16.602,-76.364 -12.473,-67.27C-8.356,-58.175 -8.261,-55.108 -9.536,-46.612C-10.807,-38.122 -15.322,-34.91 -4.359,-28.334C6.602,-21.757 27.998,0 33.978,-5.631C39.965,-11.263 0,-86.093 0,-86.093"/> </g> <g transform="matrix(1.74301,0,0,1.74301,336.011,664.99)"> <path style="fill-rule:nonzero;" d="M0,-70.063C-4.493,-66.748 -9.785,-61.446 -8.064,-57.657C-3.691,-47.997 -3.459,-44.366 -4.856,-35.057C-5.168,-32.972 -5.643,-31.23 -6.061,-29.693C-7.307,-25.114 -7.604,-24.026 -1.319,-20.256C2.303,-18.083 6.82,-14.487 11.602,-10.68C18.654,-5.066 28.263,2.583 32.436,2.868C32.326,-4.737 16.499,-38.867 0,-70.063M32.669,9.788C26.666,9.788 18.726,3.825 7.297,-5.272C2.699,-8.933 -1.645,-12.391 -4.875,-14.33C-14.897,-20.341 -14.492,-25.034 -12.73,-31.507C-12.344,-32.928 -11.944,-34.397 -11.692,-36.082C-10.483,-44.138 -10.575,-46.445 -14.359,-54.803C-19.622,-66.394 -2.459,-76.875 -0.485,-78.033L2.617,-79.851L4.311,-76.679C4.411,-76.492 14.445,-57.678 23.617,-38.417C29.027,-27.056 33.091,-17.745 35.696,-10.743C39.808,0.31 40.327,5.371 37.608,7.928C36.316,9.144 34.608,9.788 32.669,9.788"/> </g> <g transform="matrix(1.74301,0,0,1.74301,715.138,695.442)"> <path style="fill:rgb(204,206,208);" d="M0,-86.093C0,-86.093 16.604,-76.363 12.475,-67.273C8.356,-58.176 8.261,-55.106 9.537,-46.613C10.807,-38.122 15.322,-34.911 4.36,-28.333C-6.601,-21.757 -27.997,0 -33.978,-5.63C-39.963,-11.266 0,-86.093 0,-86.093"/> </g> <g transform="matrix(1.74301,0,0,1.74301,717.339,676.197)"> <path style="fill-rule:nonzero;" d="M0,-70.064C-16.499,-38.867 -32.325,-4.737 -32.436,2.868C-28.263,2.582 -18.654,-5.066 -11.603,-10.679C-6.82,-14.487 -2.303,-18.083 1.319,-20.255C7.603,-24.026 7.307,-25.114 6.062,-29.693C5.643,-31.231 5.169,-32.974 4.856,-35.061C3.458,-44.365 3.689,-47.996 8.063,-57.657C9.785,-61.447 4.494,-66.748 0,-70.064M-32.669,9.788C-34.608,9.788 -36.316,9.144 -37.609,7.927C-40.326,5.369 -39.808,0.308 -35.695,-10.745C-33.09,-17.747 -29.026,-27.058 -23.616,-38.419C-14.445,-57.68 -4.411,-76.493 -4.311,-76.68L-2.617,-79.852L0.484,-78.034C2.459,-76.876 19.623,-66.394 14.358,-54.802C10.574,-46.444 10.481,-44.137 11.691,-36.085C11.944,-34.397 12.344,-32.928 12.73,-31.507C14.491,-25.035 14.896,-20.342 4.876,-14.33C1.646,-12.391 -2.699,-8.933 -7.299,-5.272C-18.727,3.825 -26.666,9.788 -32.669,9.788"/> </g> <g transform="matrix(1.74301,0,0,1.74301,351.473,656.748)"> <path style="fill:white;" d="M0,-138.22C0,-138.22 -3.858,-105.432 0,-79.716C3.856,-54.002 8.712,-38.888 9.821,-34.873C10.929,-30.859 72.003,14.786 124.72,8.999C177.436,3.214 199.292,-32.786 202.508,-48.859C205.721,-64.93 217.937,-124.719 207.649,-138.863C197.364,-153.006 0,-138.22 0,-138.22"/> </g> <g transform="matrix(1.74301,0,0,1.74301,527.678,585.946)"> <path style="fill:rgb(204,206,208);" d="M0,196.275C-0.574,195.396 -14.118,174.674 -18.301,167.19C-19.05,165.848 -20.337,164.945 -21.967,163.8C-23.229,162.915 -24.654,161.914 -26.027,160.549L-26.227,161.309L-27.872,158.407C-28.419,157.656 -28.94,156.818 -29.416,155.873L-29.813,155.083L-29.813,154.979C-29.813,154.979 -31.198,152.531 -31.324,152.316C-34.789,146.436 -43.823,134.192 -48.275,128.679C-50.041,126.481 -52.834,123.777 -55.933,120.871L-55.938,120.889L-60.481,116.623C-65.556,111.858 -67.995,106.173 -69.954,101.607C-70.437,100.481 -70.894,99.418 -71.341,98.488C-73.394,94.222 -75.261,84.921 -76.624,78.13C-76.985,76.33 -77.302,74.75 -77.563,73.575C-78.399,69.825 -80.918,65.76 -83.585,61.458C-86.492,56.769 -89.497,51.921 -90.59,46.873C-90.874,45.743 -93.352,41.583 -95.344,38.241C-103.441,24.65 -109.948,12.776 -107.539,5.11C-106.585,2.076 -105.145,-2.51 -101.13,-2.51C-98.858,-2.51 -97.438,-0.932 -96.401,0.219C-95.52,1.199 -94.851,1.891 -94.259,1.891C-94.211,1.891 -94.161,1.888 -94.11,1.882L-92.573,1.713L-91.367,2.681C-91.259,2.768 -80.508,11.407 -77.684,13.613C-74.358,16.203 -63.599,19.59 -57.818,21.41C-56.453,21.839 -55.248,22.219 -54.292,22.536C-47.876,24.659 -43.596,25.564 -39.979,25.564C-36.318,25.564 -33.104,24.616 -29.231,22.391C-27.228,21.238 -24.457,19.487 -21.522,17.633C-14.366,13.113 -6.255,7.99 -0.824,5.954C0.045,5.629 0.986,5.463 1.971,5.463C7.416,5.463 13.657,10.601 20.266,16.042C23.452,18.666 26.747,21.379 29.394,22.959C35.649,26.693 38.007,27.254 42.288,28.272C43.511,28.562 44.86,28.883 46.448,29.309C49.49,30.124 51.504,30.471 53.182,30.471C56.156,30.471 58.686,29.329 64.006,25.583C66.187,24.047 68.286,22.486 70.316,20.976C74.335,17.989 77.805,15.409 80.788,13.844C87.026,10.588 94.873,1.313 95.857,0.132C98.223,-3.329 101.324,-5.31 104.392,-5.31C106.256,-5.31 107.968,-4.566 109.213,-3.215C110.306,-2.029 111.543,0.178 111.233,3.961C109.566,24.384 86.519,75.534 79.75,88.255C76.212,94.926 68.145,104.989 62.253,112.336C61.14,113.724 60.12,114.996 59.249,116.098C56.816,119.185 54.743,123.323 52.548,127.703C50.057,132.671 47.481,137.809 44.137,141.724C42.658,143.456 40.782,145.08 38.61,146.96C34.919,150.155 30.326,154.13 26.404,160.014C21.066,168.017 6.562,195.685 6.418,195.964L3.474,201.585L0,196.275Z"/> </g> <g transform="matrix(1.74301,0,0,1.74301,709.635,950.12)"> <path style="fill-rule:nonzero;" d="M0,-217.969C-4.274,-217.969 -8.451,-215.451 -11.514,-211.044C-14.676,-207.234 -21.034,-200.634 -25.322,-198.395C-28.576,-196.689 -32.154,-194.028 -36.298,-190.948C-38.31,-189.451 -40.39,-187.905 -42.53,-186.399C-47.615,-182.818 -49.381,-182.188 -51.211,-182.188C-52.527,-182.188 -54.307,-182.507 -56.98,-183.223C-58.632,-183.665 -60.02,-183.995 -61.243,-184.286C-65.42,-185.28 -67.325,-185.733 -73.09,-189.174C-75.495,-190.61 -78.68,-193.232 -81.761,-195.768C-88.898,-201.645 -95.641,-207.195 -102.421,-207.197L-102.424,-207.197C-103.855,-207.197 -105.234,-206.951 -106.524,-206.468C-112.313,-204.298 -120.596,-199.066 -127.904,-194.449C-130.805,-192.617 -133.545,-190.886 -135.487,-189.768C-138.791,-187.87 -141.368,-187.095 -144.372,-187.095C-147.525,-187.095 -151.578,-187.971 -157.513,-189.935C-158.485,-190.256 -159.707,-190.641 -161.093,-191.077C-165.85,-192.575 -176.992,-196.083 -179.791,-198.263C-182.588,-200.447 -193.318,-209.07 -193.426,-209.156L-195.837,-211.094L-197.733,-210.884C-197.836,-210.997 -197.938,-211.111 -198.025,-211.207C-199.272,-212.592 -201.593,-215.169 -205.523,-215.169C-212.272,-215.169 -214.442,-208.26 -215.485,-204.94C-218.362,-195.788 -211.806,-183.674 -202.936,-168.787C-201.202,-165.877 -199.056,-162.275 -198.572,-161.042C-197.307,-155.456 -194.174,-150.403 -191.144,-145.514C-188.757,-141.664 -186.29,-137.683 -185.589,-134.542C-185.343,-133.433 -185.03,-131.874 -184.668,-130.071C-182.851,-121.015 -181.176,-113.166 -179.089,-108.83C-178.677,-107.975 -178.236,-106.947 -177.77,-105.86C-175.818,-101.311 -173.158,-95.111 -167.712,-89.87L-167.708,-89.859L-166.805,-89.016L-160.415,-83.014C-158.439,-81.111 -156.734,-79.37 -155.578,-77.93C-151.132,-72.425 -142.188,-60.264 -138.917,-54.714C-138.817,-54.543 -138.699,-54.331 -138.577,-54.115L-138.376,-53.759L-137.931,-52.974L-137.931,-52.968L-137.136,-51.388C-136.594,-50.312 -136.006,-49.353 -135.391,-48.491L-129.343,-37.822L-128.267,-41.921C-127.025,-41.047 -126.245,-40.464 -125.945,-39.928C-121.699,-32.33 -108.087,-11.504 -107.51,-10.621L-100.563,0L-94.676,-11.242C-94.531,-11.519 -80.117,-39.015 -74.89,-46.854C-71.247,-52.318 -67.049,-55.952 -63.345,-59.158C-61.153,-61.055 -59.084,-62.847 -57.422,-64.794C-53.784,-69.051 -51.105,-74.395 -48.516,-79.563C-46.407,-83.769 -44.416,-87.741 -42.215,-90.534C-41.354,-91.624 -40.341,-92.888 -39.234,-94.268C-33.25,-101.731 -25.055,-111.952 -21.35,-118.939C-14.262,-132.26 8.816,-183.388 10.554,-204.671C10.973,-209.797 9.156,-212.94 7.56,-214.673C5.601,-216.799 2.916,-217.969 0,-217.969M0,-210.52C1.982,-210.52 3.412,-208.734 3.129,-205.278C1.562,-186.089 -20.468,-136.455 -27.931,-122.429C-31.974,-114.805 -42.761,-101.863 -48.066,-95.145C-53.648,-88.061 -57.241,-76.473 -63.088,-69.63C-66.831,-65.244 -74.659,-60.63 -81.088,-50.987C-86.596,-42.727 -101.275,-14.698 -101.275,-14.698C-101.275,-14.698 -115.274,-36.104 -119.442,-43.562C-121.997,-48.134 -127.397,-48.608 -130.481,-54.737L-130.481,-62.015C-131.029,-60.485 -131.494,-58.958 -131.895,-57.432C-132.103,-57.798 -132.306,-58.164 -132.5,-58.496C-136.101,-64.607 -145.338,-77.108 -149.77,-82.595C-152.317,-85.767 -156.624,-89.702 -161.077,-93.859C-161.441,-95.199 -161.562,-96.596 -161.207,-98.09C-161.694,-97.072 -162.053,-96.043 -162.324,-95.027C-168.041,-100.395 -170.097,-107.321 -172.376,-112.061C-174.753,-116.998 -177.124,-130.774 -178.318,-136.165C-180.278,-144.948 -189.437,-154.05 -191.343,-162.85C-192.445,-167.953 -211.464,-192.889 -208.378,-202.707C-207.191,-206.486 -206.353,-207.72 -205.523,-207.72C-203.957,-207.72 -202.426,-203.319 -198.651,-203.319C-198.47,-203.319 -198.284,-203.328 -198.093,-203.35C-198.093,-203.35 -187.247,-194.633 -184.369,-192.386C-179.729,-188.773 -165.452,-184.713 -159.854,-182.863C-153.509,-180.763 -148.674,-179.646 -144.372,-179.646C-139.962,-179.646 -136.111,-180.82 -131.769,-183.313C-125.047,-187.184 -111.245,-196.743 -103.909,-199.492C-103.447,-199.665 -102.951,-199.747 -102.422,-199.747C-95.938,-199.745 -84.791,-187.484 -76.908,-182.778C-68.354,-177.671 -66.24,-177.991 -58.908,-176.028C-55.801,-175.195 -53.386,-174.739 -51.211,-174.739C-47.057,-174.739 -43.781,-176.406 -38.242,-180.307C-31.821,-184.826 -26.039,-189.608 -21.875,-191.791C-14.476,-195.655 -5.551,-206.566 -5.551,-206.566C-3.776,-209.226 -1.688,-210.52 0,-210.52"/> </g> <g transform="matrix(-1.34187,-1.1124,-1.1124,1.34187,386.449,704.423)"> <path d="M-7.336,-18.04C-4.666,-13.61 -2.453,-8.65 -1.381,-3.536C-3.476,-2.307 -5.494,-1.022 -7.336,0.41C-7.641,0.648 -7.97,0.906 -8.295,1.161C-7.055,-5.086 -6.695,-11.547 -7.336,-18.04"/> </g> <g transform="matrix(-1.70466,0.36359,0.36359,1.70466,569.013,888.04)"> <path d="M4.368,-27.227C4.849,-20.343 5.5,-7.328 8.619,-0.765C7.071,-1.155 5.631,-1.471 4.368,-1.656C3.748,-1.752 3.068,-1.809 2.376,-1.861C2.865,-7.882 2.169,-20.862 4.368,-27.227"/> </g> <g transform="matrix(1.74301,0,0,1.74301,886.267,508.015)"> <path style="fill-rule:nonzero;" d="M0,-120.451C-4.344,-128.284 -26.041,-129.066 -45.139,-118.887C-64.238,-108.703 -167.525,-60.944 -200.519,-58.596C-202.699,-58.438 -204.726,-58.296 -206.648,-58.164C-208.568,-58.296 -210.594,-58.438 -212.774,-58.596C-245.765,-60.944 -349.054,-108.703 -368.152,-118.887C-387.252,-129.066 -408.95,-128.284 -413.294,-120.451C-417.637,-112.619 -419.38,-102.306 -418.504,-96.179C-414.305,-66.805 -390.721,-32.755 -351.657,-6.914C-341.53,-0.215 -303.396,8.615 -303.396,8.615C-303.396,8.615 -310.033,-31.843 -302.965,-36.388C-284.964,-47.96 -258.395,-4.241 -204.393,-4.674C-185.506,-4.822 -134.479,-34.631 -109.244,-33.813C-96.262,-33.395 -101.728,6.363 -101.728,6.363C-101.728,6.363 -70.698,-0.919 -61.632,-6.914C-22.571,-32.755 1.543,-67.587 5.209,-96.179C5.996,-102.319 4.346,-112.619 0,-120.451"/> </g> <g transform="matrix(1.74301,0,0,1.74301,661.326,306.595)"> <path style="fill:rgb(204,206,208);fill-rule:nonzero;" d="M0,-42.889C-8.451,-55.561 -14.779,-51.335 -23.229,-64.007C-31.678,-76.681 -35.706,-89.872 -42.671,-91.166C-64.322,-95.19 -63.705,-72.502 -73.926,-72.199L-77.081,-72.199C-87.302,-72.502 -87.451,-92.117 -107.949,-90.4C-115.009,-89.807 -119.325,-76.681 -127.777,-64.007C-136.23,-51.335 -142.558,-55.561 -151.006,-42.889C-159.449,-30.215 -175.298,16.25 -175.298,16.25C-175.298,16.25 -121.244,52.301 -77.929,50.444C-30.301,48.403 24.291,16.25 24.291,16.25C24.291,16.25 8.441,-30.215 0,-42.889"/> </g> <g transform="matrix(1.74301,0,0,1.74301,523.341,143.656)"> <path style="fill-rule:nonzero;" d="M0,144.236C-34.528,144.931 -96.133,109.731 -96.133,109.731C-96.133,109.731 -80.284,63.266 -71.841,50.592C-63.393,37.92 -57.065,42.146 -48.612,29.475C-40.16,16.801 -35.844,3.674 -28.784,3.082C-27.924,3.01 -27.101,2.975 -26.311,2.975C-8.259,2.982 -7.708,20.992 2.084,21.283L5.239,21.283C14.629,21.004 14.873,1.837 31.634,1.837C33.115,1.837 34.731,1.987 36.494,2.316C43.459,3.61 47.487,16.801 55.937,29.475C64.386,42.146 70.714,37.92 79.165,50.592C87.606,63.266 103.456,109.731 103.456,109.731C103.456,109.731 44.553,143.331 0,144.236M112.179,106.757C110.517,101.884 95.688,58.775 86.835,45.486C81.402,37.333 76.257,34.396 72.124,32.031C68.807,30.136 66.618,28.885 63.601,24.361C61.013,20.478 58.855,16.509 56.774,12.671C51.6,3.145 47.139,-5.084 38.174,-6.744C35.916,-7.163 33.715,-7.379 31.634,-7.379C17.047,-7.379 10.476,2.569 6.55,8.518C5.801,9.65 4.743,11.25 4.031,12.07L2.855,12.07C2.111,11.406 0.841,9.731 -0.037,8.572C-4.245,3.031 -11.293,-6.236 -26.309,-6.241C-27.368,-6.241 -28.456,-6.193 -29.555,-6.1C-39.304,-5.281 -44.388,3.809 -49.775,13.432C-51.781,17.018 -53.856,20.725 -56.279,24.361C-59.299,28.885 -61.488,30.136 -64.802,32.031C-68.935,34.396 -74.08,37.333 -79.508,45.482C-88.366,58.775 -103.193,101.884 -104.854,106.757L-105.677,112.115C-105.677,112.115 -100.573,117.409 -98.478,118.641C-64.21,138.796 -5.382,151.028 -5.382,151.028C-5.382,151.028 8.27,151.615 12.766,151.009C48.615,146.187 105.801,118.641 105.801,118.641L115.372,116.124L112.179,106.757Z"/> </g> <g transform="matrix(1.74301,0,0,1.74301,163.629,410.278)"> <path style="fill-rule:nonzero;" d="M0,-58.914C0,-58.914 9.026,-74.488 27.456,-68.306C45.885,-62.119 155.7,30.828 210.997,30.189C266.561,29.545 364.587,-60.347 384.553,-67.421C404.521,-74.493 414.593,-62.727 414.593,-62.727C414.593,-62.727 409.897,-83.332 389.162,-82.447C368.43,-81.567 277.941,-3.885 208.058,-3.885C142.392,-3.885 47.405,-87.685 29.761,-88.636C9.216,-89.742 0,-58.914 0,-58.914"/> </g> <g transform="matrix(-0.00434743,1.743,1.743,0.00434743,590.709,157.129)"> <path style="fill:white;fill-rule:nonzero;" d="M96.111,-162.089C96.111,-162.089 146.9,-96.519 148.524,-40.452C150.155,15.611 96.111,95.708 96.111,95.708C96.111,95.708 161.921,1.376 162.015,-36.563C162.115,-76.412 96.111,-162.089 96.111,-162.089"/> </g> <g transform="matrix(-1.50411,0.880744,0.880744,1.50411,645.63,255.118)"> <path style="fill-rule:nonzero;" d="M6.756,-44.453C6.756,-44.453 11.81,-34.988 10.825,-24.588C9.713,-12.81 6.756,4.937 6.756,4.937C6.756,4.937 19.24,-17.055 19.137,-26.342C19.043,-35.628 6.756,-44.453 6.756,-44.453"/> </g> <g transform="matrix(-1.50409,-0.880785,-0.880785,1.50409,422.207,253.11)"> <path style="fill-rule:nonzero;" d="M-6.757,-44.453C-6.757,-44.453 -11.809,-34.989 -10.827,-24.588C-9.711,-12.812 -6.757,4.937 -6.757,4.937C-6.757,4.937 -19.242,-17.055 -19.144,-26.342C-19.044,-35.628 -6.757,-44.453 -6.757,-44.453"/> </g> <g transform="matrix(1.74301,0,0,1.74301,855.325,467.632)"> <path style="fill:white;fill-rule:nonzero;" d="M0,-60.263C-8.642,-56.627 -13.441,-60.088 -13.441,-60.088C-13.441,-60.088 -15.584,-55.884 -33.021,-38.268C-42.619,-28.569 -59.9,-19.742 -59.9,-19.742C-59.9,-19.742 -51.262,-19.22 -56.446,-7.272C-56.535,-7.067 -56.604,-6.865 -56.685,-6.66C-51.338,-9.821 -42.751,-15.203 -34.403,-21.744C-20.903,-32.325 -10.4,-41.899 -10.4,-41.899C-10.4,-41.899 -25.402,-22.081 -47.902,-4.615C-52.266,-1.228 -55.842,1.144 -58.562,2.781C-58.626,7.274 -57.595,10.393 -57.595,10.393L-50.686,6.754C-43.773,3.122 -19.007,-11.427 -0.576,-37.925C12.301,-56.429 12.669,-70.656 12.669,-70.656C12.669,-70.656 8.64,-63.904 0,-60.263"/> </g> <g transform="matrix(1.74301,0,0,1.74301,293.358,387.232)"> <path style="fill:white;fill-rule:nonzero;" d="M0,45.88C-22.501,28.413 -37.504,8.599 -37.504,8.599C-37.504,8.599 -27.001,18.169 -13.5,28.749C-4.58,35.742 4.621,41.41 9.837,44.454C5.292,33.442 13.476,32.837 13.476,32.837C13.476,32.837 -3.945,24.232 -13.701,14.662C-31.421,-2.723 -33.634,-6.899 -33.634,-6.899C-33.634,-6.899 -38.376,-3.37 -47.073,-6.896C-55.77,-10.418 -59.911,-17.118 -59.911,-17.118C-59.911,-17.118 -59.311,-2.905 -46.138,15.435C-27.282,41.686 -2.284,55.908 4.688,59.45L11.658,62.998C11.658,62.998 12.791,59.371 12.444,54.321C9.595,52.717 5.39,50.063 0,45.88"/> </g> <g transform="matrix(1.74301,0,0,1.74301,502.896,225.786)"> <path style="fill-rule:nonzero;" d="M0,-39.859C0,-39.859 1.929,-19.287 7.716,-9.642C13.501,0 21.857,-3.855 21.857,-3.855C21.857,-3.855 12.214,-6.428 10.286,-16.071C8.357,-25.714 6.43,-32.786 6.43,-32.786L0,-39.859Z"/> </g> <g transform="matrix(1.74301,0,0,1.74301,626.379,585.778)"> <path style="fill-rule:nonzero;" d="M0,-47.57C0,-47.57 -7.715,-45.429 -13.071,-41.141C-18.428,-36.858 -18.857,-35.999 -18.857,-35.999C-18.857,-35.999 -14.784,-43.715 -11.357,-46.502C-7.929,-49.288 -5.143,-51.643 -5.143,-51.643C-5.143,-51.643 -14.144,-46.498 -20.144,-39.857C-26.144,-33.214 -29.356,-28.712 -30.643,-27.856C-31.929,-27 -35.786,-26.57 -40.286,-26.57L-46.715,-26.57C-47.572,-26.57 -49.929,-28.286 -49.929,-28.286C-49.929,-28.286 -44.143,-22.715 -40.5,-18.641C-36.857,-14.572 -31.716,-11.142 -28.93,-6.001C-26.144,-0.854 -22.072,1.501 -22.072,1.501C-22.072,1.501 -24.428,-3.002 -22.287,-1.928C-20.144,-0.854 -17.571,1.074 -13.5,1.287C-9.427,1.501 -5.785,1.93 -5.785,1.93C-5.785,1.93 -9.43,0.001 -4.715,0.001C0,0.001 -1.499,0.86 5.787,2.36C13.073,3.859 11.574,4.073 16.93,3.859C22.288,3.645 24.858,0.431 24.858,0.431C24.858,0.431 19.716,3.215 14.787,2.147C9.857,1.075 13.286,-0.426 16.072,-1.712C18.857,-2.999 22.502,-6.001 23.786,-9.426C25.074,-12.855 25.715,-16.499 25.715,-16.499C25.715,-16.499 24.215,-9.857 17.359,-5.142C10.502,-0.426 8.145,-3.426 9.644,-4.283C11.145,-5.142 21.858,-8.998 23.786,-18C25.715,-27 22.288,-34.714 21.431,-36.858C20.572,-38.999 20.356,-39.857 20.356,-39.857C20.356,-39.857 26.357,-33.426 27.002,-29.141C27.645,-24.858 28.074,-22.501 28.074,-22.501C28.074,-22.501 28.932,-31.073 25.932,-36.428C22.93,-41.786 20.356,-43.714 20.356,-43.714C20.356,-43.714 28.717,-39.428 30.645,-31.5C32.573,-23.57 32.788,-21 32.788,-21C32.788,-21 33.43,-30.429 34.716,-27C36.001,-23.57 36.646,-22.501 36.646,-22.501C36.646,-22.501 30.645,-44.573 19.071,-48.002C7.502,-51.428 0,-47.57 0,-47.57"/> </g> <g transform="matrix(0.696976,-1.59759,-1.59759,-0.696976,686.888,483.59)"> <path style="fill-rule:nonzero;" d="M-18.519,-8.781C-18.519,-8.781 -12.456,2.513 -13.074,10.893C-13.69,19.275 -18.519,26.055 -18.519,26.055C-18.519,26.055 -9.298,18.856 -8.623,9.796C-7.944,0.742 -18.519,-8.781 -18.519,-8.781"/> </g> <g transform="matrix(1.74301,0,0,1.74301,583.798,568.972)"> <path style="fill-rule:nonzero;" d="M0,-33.428C0,-33.428 -8.142,-20.785 -9.643,-20.143C-11.144,-19.499 -20.787,-20.356 -22.289,-20.572C-23.787,-20.785 -27.215,-23.142 -27.215,-23.142L-13.072,13.929C-13.072,13.929 -19.713,-1.713 -19.713,1.288C-19.713,4.287 -11.786,18.645 -11.786,18.645L-29.572,-13.072L-25.5,-10.072L-31.071,-19.928L-31.501,-37.501C-31.501,-37.501 -31.501,-33.645 -30.002,-34.284C-28.5,-34.929 -27.215,-37.285 -27.215,-37.285C-27.215,-37.285 -30.646,-30.215 -28.5,-31.714C-26.357,-33.216 -27.855,-34.501 -14.787,-43.286C-1.714,-52.073 1.499,-51.643 1.499,-51.643C1.499,-51.643 -17.785,-39.433 -20.785,-33.859C-23.787,-28.286 -23.145,-23.784 -20.358,-24.001C-17.572,-24.215 -10.929,-31.072 -10.929,-31.072C-10.929,-31.072 -15.428,-24.429 -12.428,-24.429C-9.429,-24.429 0,-33.428 0,-33.428"/> </g> <g transform="matrix(1.74301,0,0,1.74301,704.445,438.241)"> <path style="fill-rule:nonzero;" d="M0,45.646C0,45.646 -3.216,34.93 -10.286,29.144C-17.358,23.358 -27.645,23.143 -27.645,23.143C-27.645,23.143 -21.216,21.644 -18.642,22.5C-16.071,23.358 -10.929,24.216 -10.929,24.216C-10.929,24.216 -19.287,20.572 -22.5,20.359C-25.717,20.142 -30.644,19.93 -30.644,19.93L-21.431,18.431C-21.431,18.431 -26.572,16.502 -30.001,16.714C-33.43,16.929 -37.073,17.572 -37.073,17.572C-37.073,17.572 -33.214,15 -29.574,13.715C-25.931,12.427 -25.931,11.788 -29.574,11.788C-33.214,11.788 -26.357,6.217 -21.858,3.642C-17.358,1.072 -14.786,0 -14.144,1.5C-13.5,3.002 -14.786,11.574 -12.431,17.788C-10.072,24 -6.644,27 -6.644,27C-6.644,27 -9.859,11.144 -8.787,6.217C-7.715,1.286 -3.217,0.643 -0.858,1.072C1.501,1.5 -1.714,14.145 -0.858,22.715C0,31.288 2.142,36.429 2.142,36.429L0,45.646Z"/> </g> <g transform="matrix(1.74301,0,0,1.74301,638.33,603.705)"> <path style="fill-rule:nonzero;" d="M0,-1.495C0,-1.495 -4.928,-5.141 -7.498,-5.141C-10.069,-5.141 -8.355,-1.925 -10.927,-2.784C-13.499,-3.641 -21.426,-4.713 -21.426,-4.713L-1.712,3.646C-1.712,3.646 -8.571,-0.213 -6.428,-1.495C-4.283,-2.784 0,-1.495 0,-1.495"/> </g> <g transform="matrix(1.74301,0,0,1.74301,614.801,585.03)"> <path style="fill-rule:nonzero;" d="M0,13.931C0,13.931 -7.288,13.931 -15.43,6.859C-23.571,-0.213 -26.786,-3.213 -26.786,-3.213L-15,17.144C-15,17.144 -18.216,12.645 -14.143,12C-10.073,11.36 0,13.931 0,13.931"/> </g> <g transform="matrix(1.74301,0,0,1.74301,549.062,574.578)"> <path style="fill-rule:nonzero;" d="M0,14.784C0,14.784 -6.645,-3.645 -7.501,-4.717C-8.356,-5.787 -9.645,-1.074 -10.717,-1.288C-11.785,-1.503 -13.927,-3.216 -14.786,-3.86C-15.644,-4.501 -19.503,9.64 -21.001,13.497C-22.5,17.356 -23.786,20.571 -23.786,20.571C-23.786,20.571 -15.857,13.177 -15.644,12.106C-15.431,11.035 -11.356,7.499 -10.929,5.141C-10.501,2.784 -8.68,13.497 -8.251,14.356C-7.821,15.216 1.284,18.641 1.284,18.641L0,14.784Z"/> </g> <g transform="matrix(1.74301,0,0,1.74301,692.121,527.331)"> <path style="fill-rule:nonzero;" d="M0,29.676C0,29.676 3.854,20.464 3.854,8.89C3.854,-2.682 1.286,-8.04 1.286,-8.04C1.286,-8.04 5.998,-2.469 6.215,-0.325C6.427,1.818 6.427,-3.325 5.785,-5.681C5.144,-8.04 15.643,-10.394 15.643,-7.609C15.643,-4.824 10.82,22.926 8.034,31.499C5.247,40.07 0,29.676 0,29.676"/> </g> <g transform="matrix(1.74301,0,0,1.74301,657.014,613.052)"> <path style="fill-rule:nonzero;" d="M0,-1.717L-8.788,-2.145L-5.787,0.428L0,-1.717Z"/> </g> <g transform="matrix(1.74301,0,0,1.74301,434.021,585.778)"> <path style="fill-rule:nonzero;" d="M0,-47.57C0,-47.57 7.716,-45.429 13.072,-41.141C18.429,-36.858 18.857,-35.999 18.857,-35.999C18.857,-35.999 14.786,-43.715 11.356,-46.502C7.928,-49.288 5.144,-51.643 5.144,-51.643C5.144,-51.643 14.146,-46.498 20.143,-39.857C26.143,-33.214 29.358,-28.712 30.643,-27.856C31.928,-27 35.786,-26.57 40.287,-26.57L46.716,-26.57C47.571,-26.57 49.928,-28.286 49.928,-28.286C49.928,-28.286 44.144,-22.715 40.5,-18.641C36.859,-14.572 31.715,-11.142 28.928,-6.001C26.143,-0.854 22.07,1.501 22.07,1.501C22.07,1.501 24.428,-3.002 22.287,-1.928C20.143,-0.854 17.572,1.074 13.5,1.287C9.428,1.501 5.786,1.93 5.786,1.93C5.786,1.93 9.429,0.001 4.713,0.001C0,0.001 1.499,0.86 -5.787,2.36C-13.073,3.859 -11.573,4.073 -16.93,3.859C-22.286,3.645 -24.859,0.431 -24.859,0.431C-24.859,0.431 -19.715,3.215 -14.787,2.147C-9.858,1.075 -13.286,-0.426 -16.073,-1.712C-18.858,-2.999 -22.501,-6.001 -23.787,-9.426C-25.073,-12.855 -25.716,-16.499 -25.716,-16.499C-25.716,-16.499 -24.214,-9.857 -17.358,-5.142C-10.502,-0.426 -8.144,-3.426 -9.644,-4.283C-11.144,-5.142 -21.858,-8.998 -23.787,-18C-25.716,-27 -22.288,-34.714 -21.43,-36.858C-20.572,-38.999 -20.358,-39.857 -20.358,-39.857C-20.358,-39.857 -26.359,-33.426 -27.001,-29.141C-27.645,-24.858 -28.072,-22.501 -28.072,-22.501C-28.072,-22.501 -28.93,-31.073 -25.931,-36.428C-22.93,-41.786 -20.358,-43.714 -20.358,-43.714C-20.358,-43.714 -28.715,-39.428 -30.645,-31.5C-32.573,-23.57 -32.789,-21 -32.789,-21C-32.789,-21 -33.432,-30.429 -34.717,-27C-36.002,-23.57 -36.646,-22.501 -36.646,-22.501C-36.646,-22.501 -30.645,-44.573 -19.073,-48.002C-7.5,-51.428 0,-47.57 0,-47.57"/> </g> <g transform="matrix(0.696994,1.59758,1.59758,-0.696994,373.51,483.591)"> <path style="fill-rule:nonzero;" d="M18.519,-8.78C18.519,-8.78 12.456,2.514 13.075,10.896C13.691,19.278 18.519,26.055 18.519,26.055C18.519,26.055 9.298,18.857 8.624,9.8C7.943,0.743 18.519,-8.78 18.519,-8.78"/> </g> <g transform="matrix(1.74301,0,0,1.74301,476.6,568.972)"> <path style="fill-rule:nonzero;" d="M0,-33.428C0,-33.428 8.142,-20.785 9.644,-20.143C11.144,-19.499 20.789,-20.356 22.287,-20.572C23.788,-20.785 27.216,-23.142 27.216,-23.142L13.073,13.929C13.073,13.929 19.715,-1.713 19.715,1.288C19.715,4.287 11.788,18.645 11.788,18.645L29.572,-13.072L25.501,-10.072L31.074,-19.928L31.501,-37.501C31.501,-37.501 31.503,-33.645 30.003,-34.284C28.502,-34.929 27.216,-37.285 27.216,-37.285C27.216,-37.285 30.644,-30.215 28.502,-31.714C26.358,-33.216 27.859,-34.501 14.787,-43.286C1.715,-52.073 -1.499,-51.643 -1.499,-51.643C-1.499,-51.643 17.787,-39.433 20.788,-33.859C23.788,-28.286 23.145,-23.784 20.358,-24.001C17.574,-24.215 10.929,-31.072 10.929,-31.072C10.929,-31.072 15.429,-24.429 12.431,-24.429C9.431,-24.429 0,-33.428 0,-33.428"/> </g> <g transform="matrix(1.74301,0,0,1.74301,355.958,438.241)"> <path style="fill-rule:nonzero;" d="M0,45.646C0,45.646 3.213,34.93 10.285,29.144C17.357,23.358 27.642,23.143 27.642,23.143C27.642,23.143 21.215,21.644 18.643,22.5C16.071,23.358 10.927,24.216 10.927,24.216C10.927,24.216 19.286,20.572 22.501,20.359C25.713,20.142 30.643,19.93 30.643,19.93L21.43,18.431C21.43,18.431 26.571,16.502 30,16.714C33.429,16.929 37.071,17.572 37.071,17.572C37.071,17.572 33.214,15 29.571,13.715C25.928,12.427 25.928,11.788 29.571,11.788C33.214,11.788 26.357,6.217 21.856,3.642C17.357,1.072 14.785,0 14.142,1.5C13.5,3.002 14.787,11.574 12.429,17.788C10.069,24 6.642,27 6.642,27C6.642,27 9.856,11.144 8.785,6.217C7.714,1.286 3.215,0.643 0.858,1.072C-1.501,1.5 1.713,14.145 0.858,22.715C0,31.288 -2.145,36.429 -2.145,36.429L0,45.646Z"/> </g> <g transform="matrix(1.74301,0,0,1.74301,422.069,603.705)"> <path style="fill-rule:nonzero;" d="M0,-1.495C0,-1.495 4.928,-5.141 7.5,-5.141C10.072,-5.141 8.355,-1.925 10.929,-2.784C13.5,-3.641 21.428,-4.713 21.428,-4.713L1.713,3.646C1.713,3.646 8.57,-0.213 6.428,-1.495C4.286,-2.784 0,-1.495 0,-1.495"/> </g> <g transform="matrix(1.74301,0,0,1.74301,445.599,585.03)"> <path style="fill-rule:nonzero;" d="M0,13.931C0,13.931 7.288,13.931 15.428,6.859C23.572,-0.213 26.787,-3.213 26.787,-3.213L15,17.144C15,17.144 18.215,12.645 14.144,12C10.072,11.36 0,13.931 0,13.931"/> </g> <g transform="matrix(1.74301,0,0,1.74301,369.399,529.763)"> <path style="fill-rule:nonzero;" d="M0,31.067C0,31.067 -4.5,19.069 -4.5,7.495C-4.5,-4.078 -1.928,-9.435 -1.928,-9.435C-1.928,-9.435 -6.641,-3.864 -6.856,-1.72C-7.071,0.422 -7.071,-4.72 -6.428,-7.077C-5.785,-9.435 -16.285,-11.789 -16.285,-9.004C-16.285,-6.219 -15.75,16.282 -7.714,34.602C-4.094,42.856 0,31.067 0,31.067"/> </g> <g transform="matrix(1.74301,0,0,1.74301,403.388,613.052)"> <path style="fill-rule:nonzero;" d="M0,-1.717L8.786,-2.145L5.786,0.428L0,-1.717Z"/> </g> <g transform="matrix(1.74301,0,0,1.74301,588.281,638.445)"> <path style="fill:white;" d="M0,2.359C-21.926,-7.223 -27.859,-17.36 -33.002,-17.36C-38.145,-17.36 -53.145,-7.927 -73.286,5.357C-88.236,15.218 -112.717,14.788 -112.717,14.788C-112.717,14.788 -87.001,19.719 -70.288,10.073C-43.416,-5.433 -36.215,-4.499 -29.145,-3.856C-22.074,-3.215 -18.666,1.491 12.857,13.502C21.857,16.931 43.288,17.358 43.288,17.358C51.43,17.788 25.504,13.503 0,2.359"/> </g> <g transform="matrix(1.74301,0,0,1.74301,530.013,734.445)"> <path style="fill:white;" d="M0,-62.151C0,-62.151 -36.858,-18.004 -45.859,-7.716C-54.858,2.567 -9,-64.718 -9,-64.718L0,-62.151Z"/> </g> <g transform="matrix(1.74301,0,0,1.74301,538.977,895.319)"> <path style="fill:white;" d="M0,-157.015C15.265,-153.542 0.43,-123.586 0,-108.158C-0.43,-92.728 -3.857,-78.158 0,-67.442C3.858,-56.727 0,-38.297 -0.855,-28.87C-1.475,-22.04 -7.715,3.274 -7.715,3.274C-7.715,3.274 -14.142,-23.297 -14.142,-31.441C-14.142,-39.583 -15.855,-43.011 -18.855,-52.441C-21.858,-61.869 -24.43,-71.299 -24.43,-75.158C-24.43,-79.014 -32.574,-76.011 -34.714,-71.728C-36.858,-67.442 -41.144,-63.156 -41.144,-63.156C-41.144,-63.156 -36.429,-76.869 -31.714,-80.728C-27.002,-84.584 -23.999,-95.301 -23.571,-98.3C-23.145,-101.299 -23.573,-111.584 -28.287,-116.729C-33.001,-121.871 -42,-111.584 -42,-111.584C-42,-111.584 -14.378,-160.289 0,-157.015"/> </g> <g transform="matrix(0.154352,1.73616,1.73616,-0.154352,529.638,620.663)"> <path style="fill:white;" d="M56.075,-4.769C56.075,-4.769 24.208,7.41 30.394,11.284C47.251,21.834 53.636,50.092 56.075,53.319C58.512,56.543 38.051,24.801 9.285,11.008C0.362,6.73 56.075,-4.769 56.075,-4.769"/> </g> <g transform="matrix(1.74301,0,0,1.74301,536.737,799.433)"> <path style="fill:white;" d="M0,-73.289C0,-73.289 0,-59.145 1.285,-51.002C2.57,-42.86 6.857,-37.286 9.858,-33.43C12.858,-29.572 26.143,-24.857 30.857,-20.573C35.572,-16.287 38.572,-11.144 38.572,-11.144C38.572,-11.144 21.429,-25.716 14.144,-25.716C6.857,-25.716 9.428,-17.143 10.287,-11.571C11.144,-6.001 16.715,0 16.715,0C16.715,0 4.717,-6.429 2.999,-3.856C1.285,-1.285 -3.857,-19.286 -3.857,-27.858C-3.857,-36.431 0,-73.289 0,-73.289"/> </g> <g transform="matrix(-0.677107,1.60611,1.60611,0.677107,665.017,634.829)"> <path style="fill:white;" d="M27.627,-50.815C27.627,-50.815 36.662,-31.993 36.712,-10.432C36.761,11.128 27.627,15.764 27.627,15.764C27.627,15.764 32.332,-3.139 31.611,-18.454C30.887,-33.775 27.627,-50.815 27.627,-50.815"/> </g> <g transform="matrix(1.06366,1.38084,1.38084,-1.06366,643.121,622.635)"> <path style="fill:white;" d="M14.33,-8.553C14.33,-8.553 16.499,-6.441 16.848,7.358C17.197,21.155 14.33,31.48 14.33,31.48C14.33,31.48 24.249,16.265 22.909,5.395C21.569,-5.475 14.33,-8.553 14.33,-8.553"/> </g> <g transform="matrix(-0.966773,1.45032,1.45032,0.966773,640.275,713.149)"> <path style="fill:white;" d="M20.247,-47.587C20.247,-47.587 29.071,-30.317 29.117,-12.513C29.167,5.29 20.247,7.355 20.247,7.355C20.247,7.355 24.845,-7.339 24.137,-20.117C23.431,-32.896 20.247,-47.587 20.247,-47.587"/> </g> <g transform="matrix(1.74301,0,0,1.74301,495.502,640.086)"> <path d="M0,-11.338C0,-11.338 -15.382,3.295 -35.907,1.902C-50.246,0.928 -65.94,-11.308 -65.94,-11.308C-65.94,-11.308 -48.221,-0.223 -25.58,-4.698C-11.409,-7.503 -1.063,-14.633 -1.063,-14.633L0,-11.338Z"/> </g> <g transform="matrix(1.74301,0,0,1.74301,564.339,642.329)"> <path d="M0,-11.34C0,-11.34 15.383,3.295 35.909,1.9C50.245,0.927 65.941,-11.31 65.941,-11.31C65.941,-11.31 48.221,-0.227 25.581,-4.703C11.408,-7.502 1.062,-14.635 1.062,-14.635L0,-11.34Z"/> </g> <g transform="matrix(1.74301,0,0,1.74301,476.166,806.565)"> <path d="M0,-42.137C0,-42.137 -7.32,-30.825 -14.456,-19.025C-20.358,-9.264 -22.1,0 -22.1,0L-25.21,-9.902C-25.21,-9.902 -21.671,-18.808 -15.852,-25.296C-10.03,-31.786 0,-42.137 0,-42.137"/> </g> <g transform="matrix(1.74301,0,0,1.74301,592.016,838.282)"> <path d="M0,-24.432L13.287,-11.573L6.857,0L0,-24.432Z"/> </g> <g transform="matrix(1.74301,0,0,1.74301,341.014,723.982)"> <path d="M0,-35.145C0,-35.145 3.428,-13.285 7.715,-5.143C12,2.999 15.002,6.001 15.002,6.001C15.002,6.001 7.716,-16.285 6.859,-26.145C6.001,-36 6.001,-39.431 6.001,-39.431L2.571,-41.146L0,-35.145Z"/> </g> <g transform="matrix(1.74301,0,0,1.74301,319.351,699.329)"> <path d="M0,-40.286C0,-40.286 -9.429,-30.001 -12,-21.001C-14.572,-12.001 -22.714,5.144 -22.714,5.144C-22.714,5.144 -18.429,-14.141 -14.572,-25.715C-10.715,-37.288 -2.143,-45.43 -2.143,-45.43L0,-40.286Z"/> </g> <g transform="matrix(1.74301,0,0,1.74301,366.8,346.576)"> <path style="fill-rule:nonzero;" d="M0,-11.033C0.603,-10.836 1.25,-10.625 1.933,-10.402C2.618,-10.201 3.34,-9.989 4.083,-9.772C4.833,-9.563 5.609,-9.371 6.39,-9.166C6.463,-9.142 7.062,-8.986 7.134,-8.961C7.415,-8.883 7.635,-8.81 7.886,-8.734C8.03,-8.684 9.198,-8.326 9.335,-8.276C10.301,-7.969 11.26,-7.653 12.238,-7.378C13.211,-7.094 14.163,-6.806 15.091,-6.554C16.017,-6.306 16.914,-6.07 17.766,-5.846C18.619,-5.642 19.426,-5.45 20.172,-5.274C21.671,-4.942 22.924,-4.695 23.805,-4.542C24.685,-4.391 25.189,-4.318 25.189,-4.318C25.189,-4.318 24.695,-4.443 23.84,-4.682C22.986,-4.927 21.777,-5.3 20.343,-5.781C19.631,-6.031 18.859,-6.303 18.044,-6.593C17.236,-6.897 16.384,-7.222 15.507,-7.56C14.631,-7.9 13.742,-8.276 12.835,-8.647C11.93,-9.012 11.011,-9.425 10.09,-9.828C9.952,-9.888 8.845,-10.373 8.719,-10.445C8.504,-10.549 8.25,-10.647 8.072,-10.761C8.009,-10.796 7.498,-11.087 7.436,-11.123C6.594,-11.599 5.773,-12.084 4.993,-12.552C4.219,-13.028 3.478,-13.502 2.776,-13.945C2.095,-14.401 1.457,-14.838 0.864,-15.238C0.452,-15.541 0.073,-15.812 -0.28,-16.075C0.091,-15.941 0.478,-15.805 0.888,-15.655C1.604,-15.428 2.378,-15.179 3.199,-14.916C4.016,-14.683 4.879,-14.44 5.772,-14.187C6.664,-13.945 7.59,-13.727 8.523,-13.489L9.225,-13.315C9.5,-13.242 9.691,-13.179 9.93,-13.109L11.298,-12.698C12.212,-12.425 13.117,-12.141 14.047,-11.902C14.969,-11.657 15.87,-11.4 16.746,-11.186C17.624,-10.974 18.472,-10.773 19.276,-10.58C20.084,-10.409 20.849,-10.248 21.555,-10.099C22.971,-9.823 24.153,-9.616 24.982,-9.493C25.812,-9.371 26.287,-9.316 26.287,-9.316C26.287,-9.316 25.821,-9.423 25.013,-9.634C24.208,-9.848 23.065,-10.179 21.707,-10.603C21.034,-10.826 20.303,-11.065 19.529,-11.321C18.767,-11.595 17.961,-11.886 17.129,-12.185C16.301,-12.486 15.464,-12.834 14.606,-13.164C13.752,-13.487 12.885,-13.87 12.015,-14.24L10.715,-14.795C10.512,-14.89 10.254,-14.973 10.097,-15.077L9.496,-15.416C8.702,-15.868 7.915,-16.301 7.174,-16.74C6.445,-17.183 5.741,-17.614 5.073,-18.022C4.432,-18.446 3.828,-18.845 3.269,-19.215C2.741,-19.597 2.244,-19.94 1.838,-20.253C1.448,-20.565 1.074,-20.836 0.837,-21.059C0.712,-21.169 0.599,-21.265 0.503,-21.351C0.445,-21.417 0.395,-21.472 0.356,-21.516C0.301,-21.581 0.165,-21.712 0.18,-21.697L-4.077,-17.751C-4.077,-17.751 -3.951,-17.682 -3.714,-17.554C-3.584,-17.484 -3.422,-17.399 -3.238,-17.3L-6.724,-13.951C-6.724,-13.951 -6.504,-13.834 -6.105,-13.626C-6.086,-13.615 -6.07,-13.606 -6.049,-13.596C-6.022,-13.582 -5.987,-13.565 -5.958,-13.55L-9.373,-10.148C-9.373,-10.148 -9.12,-10.017 -8.685,-9.793L-12.021,-6.348C-12.021,-6.346 -11.802,-6.235 -11.413,-6.036L-14.668,-2.546C-14.668,-2.546 -14.118,-2.263 -13.152,-1.773C-12.188,-1.297 -10.808,-0.633 -9.14,0.128C-8.295,0.498 -7.394,0.909 -6.424,1.32C-5.441,1.722 -4.432,2.165 -3.349,2.574C-2.256,2.976 -1.176,3.436 -0.005,3.806C1.146,4.193 2.334,4.58 3.447,4.993C5.697,5.808 7.98,6.621 10.124,7.333C12.264,8.061 14.289,8.683 16.027,9.198C17.773,9.696 19.238,10.071 20.269,10.315C21.301,10.547 21.892,10.679 21.892,10.679C21.892,10.679 21.321,10.493 20.318,10.171C19.322,9.837 17.915,9.333 16.25,8.683C14.591,8.018 12.668,7.224 10.639,6.313C8.6,5.417 6.468,4.42 4.316,3.406C3.211,2.93 2.241,2.327 1.255,1.758C0.27,1.213 -0.65,0.572 -1.559,0.011C-2.462,-0.565 -3.304,-1.17 -4.116,-1.711C-4.917,-2.268 -5.658,-2.818 -6.348,-3.309C-6.735,-3.596 -7.097,-3.866 -7.442,-4.126C-6.771,-3.831 -6.058,-3.509 -5.292,-3.183C-4.492,-2.858 -3.667,-2.498 -2.781,-2.16C-2.462,-2.041 -2.126,-1.92 -1.776,-1.79C-1.4,-1.656 -1.007,-1.517 -0.602,-1.374C-0.176,-1.23 0.261,-1.087 0.71,-0.94C1.172,-0.796 1.647,-0.656 2.127,-0.519C2.345,-0.445 2.737,-0.33 2.956,-0.255C3.248,-0.164 3.517,-0.071 3.799,0.02C4.229,0.166 4.998,0.418 5.41,0.571C6.478,0.945 7.549,1.318 8.619,1.671C9.694,2.028 10.752,2.383 11.78,2.704C12.803,3.03 13.799,3.333 14.746,3.616C15.688,3.891 16.583,4.145 17.409,4.374C19.072,4.818 20.467,5.15 21.446,5.363C22.43,5.569 22.991,5.679 22.991,5.679C22.991,5.679 22.444,5.514 21.492,5.221C20.544,4.915 19.203,4.454 17.614,3.863C16.825,3.556 15.971,3.225 15.072,2.864C14.174,2.498 13.231,2.106 12.263,1.689C11.291,1.277 10.298,0.835 9.29,0.386C8.284,-0.061 7.264,-0.532 6.24,-1.006C5.823,-1.185 5.106,-1.527 4.727,-1.74C4.491,-1.868 4.244,-1.994 4.022,-2.124C3.836,-2.233 3.502,-2.428 3.316,-2.536C2.377,-3.057 1.491,-3.647 0.625,-4.178C-0.235,-4.718 -1.043,-5.28 -1.818,-5.789C-2.579,-6.313 -3.286,-6.824 -3.943,-7.286C-4.296,-7.545 -4.63,-7.792 -4.945,-8.026C-4.691,-7.917 -4.432,-7.803 -4.162,-7.688C-3.543,-7.438 -2.9,-7.162 -2.213,-6.896C-1.803,-6.739 -1.359,-6.584 -0.888,-6.411C-0.397,-6.245 0.122,-6.071 0.665,-5.888C1.222,-5.716 1.8,-5.538 2.396,-5.356C3.002,-5.179 3.628,-5.012 4.258,-4.842C4.404,-4.794 4.9,-4.657 5.045,-4.609C5.331,-4.523 5.575,-4.442 5.842,-4.356C6.128,-4.258 7.097,-3.954 7.372,-3.852C8.389,-3.513 9.405,-3.17 10.43,-2.853C11.452,-2.533 12.458,-2.213 13.435,-1.926C14.41,-1.638 15.357,-1.369 16.255,-1.116C17.155,-0.875 18.005,-0.653 18.791,-0.449C20.372,-0.062 21.695,0.226 22.625,0.41C23.558,0.589 24.089,0.681 24.089,0.681C24.089,0.681 23.57,0.536 22.666,0.269C21.765,-0.006 20.49,-0.422 18.979,-0.958C18.228,-1.236 17.416,-1.539 16.559,-1.865C15.705,-2.2 14.809,-2.558 13.885,-2.935C12.961,-3.31 12.019,-3.722 11.062,-4.131C10.106,-4.538 9.138,-4.978 8.165,-5.416C7.889,-5.537 6.976,-5.95 6.723,-6.094C6.498,-6.207 6.247,-6.32 6.048,-6.441C5.923,-6.514 5.5,-6.757 5.377,-6.83C4.485,-7.328 3.632,-7.865 2.809,-8.364C1.992,-8.873 1.217,-9.39 0.48,-9.867C-0.242,-10.357 -0.915,-10.831 -1.54,-11.262C-1.891,-11.519 -2.219,-11.761 -2.532,-11.993C-2.246,-11.874 -1.952,-11.756 -1.645,-11.633C-1.147,-11.438 -0.595,-11.249 0,-11.033"/> </g> <g transform="matrix(1.74301,0,0,1.74301,685.605,342.273)"> <path style="fill-rule:nonzero;" d="M0,-10.658C-0.629,-10.476 -1.305,-10.277 -2.017,-10.072C-2.731,-9.887 -3.482,-9.69 -4.259,-9.494C-5.04,-9.303 -5.848,-9.129 -6.66,-8.943C-6.737,-8.922 -7.359,-8.78 -7.436,-8.757C-7.728,-8.684 -7.956,-8.615 -8.219,-8.546C-8.369,-8.5 -9.586,-8.17 -9.73,-8.12C-10.736,-7.837 -11.738,-7.545 -12.757,-7.291C-13.771,-7.032 -14.765,-6.764 -15.73,-6.537C-16.695,-6.311 -17.629,-6.096 -18.515,-5.895C-19.403,-5.712 -20.243,-5.54 -21.02,-5.384C-22.578,-5.09 -23.88,-4.876 -24.793,-4.746C-25.709,-4.62 -26.23,-4.562 -26.23,-4.562C-26.23,-4.562 -25.716,-4.676 -24.826,-4.895C-23.937,-5.118 -22.675,-5.465 -21.179,-5.91C-20.434,-6.146 -19.63,-6.402 -18.778,-6.674C-17.935,-6.963 -17.045,-7.268 -16.126,-7.589C-15.21,-7.911 -14.279,-8.269 -13.33,-8.622C-12.384,-8.969 -11.422,-9.364 -10.459,-9.751C-10.313,-9.806 -9.155,-10.269 -9.021,-10.341C-8.796,-10.441 -8.532,-10.534 -8.343,-10.645C-8.276,-10.678 -7.741,-10.964 -7.676,-10.998C-6.79,-11.462 -5.927,-11.934 -5.104,-12.391C-4.289,-12.86 -3.509,-13.324 -2.769,-13.758C-2.05,-14.206 -1.378,-14.636 -0.753,-15.03C-0.316,-15.327 0.084,-15.596 0.457,-15.853C0.07,-15.729 -0.334,-15.601 -0.764,-15.461C-1.511,-15.248 -2.317,-15.018 -3.173,-14.774C-4.025,-14.561 -4.926,-14.34 -5.854,-14.107C-6.784,-13.889 -7.746,-13.691 -8.718,-13.478L-9.448,-13.321C-9.734,-13.256 -9.935,-13.195 -10.183,-13.133L-11.609,-12.755C-12.563,-12.501 -13.506,-12.238 -14.476,-12.022C-15.436,-11.802 -16.373,-11.565 -17.285,-11.372C-18.199,-11.184 -19.081,-11.003 -19.917,-10.832C-20.758,-10.683 -21.554,-10.541 -22.286,-10.411C-23.758,-10.172 -24.984,-10 -25.846,-9.899C-26.707,-9.801 -27.2,-9.761 -27.2,-9.761C-27.2,-9.761 -26.714,-9.852 -25.873,-10.046C-25.034,-10.239 -23.842,-10.542 -22.427,-10.935C-21.724,-11.142 -20.962,-11.367 -20.155,-11.605C-19.358,-11.862 -18.518,-12.136 -17.646,-12.417C-16.782,-12.703 -15.905,-13.031 -15.01,-13.344C-14.118,-13.649 -13.208,-14.016 -12.3,-14.37L-10.939,-14.898C-10.725,-14.989 -10.456,-15.07 -10.29,-15.169L-9.659,-15.5C-8.825,-15.94 -7.997,-16.36 -7.217,-16.789C-6.451,-17.224 -5.708,-17.645 -5.005,-18.044C-4.331,-18.459 -3.692,-18.852 -3.104,-19.216C-2.547,-19.592 -2.021,-19.929 -1.592,-20.238C-1.177,-20.551 -0.783,-20.815 -0.532,-21.039C-0.398,-21.148 -0.278,-21.245 -0.177,-21.33C-0.114,-21.395 -0.061,-21.45 -0.02,-21.496C0.039,-21.558 0.187,-21.688 0.169,-21.675L4.432,-17.459C4.432,-17.459 4.3,-17.393 4.053,-17.267C3.915,-17.199 3.745,-17.116 3.552,-17.02L7.04,-13.445C7.04,-13.445 6.81,-13.334 6.39,-13.133C6.37,-13.122 6.353,-13.113 6.331,-13.104C6.303,-13.09 6.266,-13.072 6.235,-13.058L9.648,-9.433C9.648,-9.433 9.384,-9.307 8.925,-9.091L12.256,-5.421C12.256,-5.421 12.025,-5.313 11.617,-5.119L14.863,-1.407C14.863,-1.407 14.286,-1.136 13.271,-0.662C12.262,-0.202 10.813,0.44 9.064,1.169C8.181,1.525 7.236,1.919 6.22,2.31C5.194,2.69 4.138,3.115 3.006,3.504C1.863,3.879 0.734,4.319 -0.489,4.661C-1.691,5.024 -2.93,5.385 -4.092,5.775C-6.441,6.54 -8.826,7.304 -11.063,7.969C-13.298,8.647 -15.408,9.221 -17.22,9.697C-19.039,10.154 -20.565,10.494 -21.637,10.709C-22.712,10.914 -23.324,11.03 -23.324,11.03C-23.324,11.03 -22.729,10.858 -21.684,10.558C-20.645,10.247 -19.174,9.772 -17.434,9.158C-15.698,8.526 -13.688,7.77 -11.563,6.898C-9.427,6.039 -7.192,5.082 -4.936,4.106C-3.779,3.652 -2.759,3.061 -1.723,2.507C-0.686,1.977 0.286,1.346 1.242,0.795C2.193,0.233 3.083,-0.364 3.937,-0.896C4.785,-1.446 5.569,-1.987 6.298,-2.472C6.708,-2.756 7.089,-3.022 7.453,-3.281C6.752,-2.995 6.006,-2.687 5.203,-2.38C4.366,-2.07 3.502,-1.724 2.575,-1.405C2.243,-1.292 1.894,-1.179 1.528,-1.055C1.132,-0.929 0.723,-0.801 0.3,-0.667C-0.144,-0.533 -0.602,-0.397 -1.068,-0.262C-1.552,-0.128 -2.045,0.001 -2.547,0.127C-2.772,0.196 -3.182,0.301 -3.411,0.369C-3.714,0.456 -3.997,0.54 -4.289,0.626C-4.739,0.765 -5.54,0.999 -5.97,1.143C-7.088,1.49 -8.206,1.843 -9.321,2.172C-10.441,2.506 -11.548,2.835 -12.62,3.133C-13.688,3.436 -14.726,3.717 -15.713,3.978C-16.695,4.23 -17.627,4.461 -18.487,4.67C-20.22,5.073 -21.671,5.371 -22.689,5.559C-23.711,5.736 -24.293,5.832 -24.293,5.832C-24.293,5.832 -23.724,5.681 -22.73,5.408C-21.743,5.124 -20.342,4.692 -18.682,4.135C-17.854,3.847 -16.966,3.531 -16.024,3.189C-15.086,2.841 -14.099,2.467 -13.083,2.071C-12.066,1.677 -11.027,1.252 -9.97,0.822C-8.918,0.395 -7.85,-0.056 -6.776,-0.512C-6.341,-0.684 -5.59,-1.014 -5.188,-1.22C-4.941,-1.345 -4.684,-1.467 -4.45,-1.594C-4.254,-1.701 -3.901,-1.89 -3.707,-1.995C-2.721,-2.502 -1.786,-3.081 -0.872,-3.599C0.032,-4.132 0.886,-4.683 1.702,-5.184C2.507,-5.699 3.254,-6.205 3.947,-6.658C4.32,-6.913 4.674,-7.158 5.007,-7.392C4.739,-7.284 4.469,-7.176 4.187,-7.067C3.539,-6.829 2.867,-6.565 2.146,-6.313C1.72,-6.165 1.256,-6.021 0.765,-5.857C0.252,-5.703 -0.291,-5.539 -0.858,-5.369C-1.437,-5.209 -2.043,-5.044 -2.664,-4.877C-3.295,-4.714 -3.946,-4.562 -4.603,-4.409C-4.754,-4.363 -5.271,-4.24 -5.423,-4.193C-5.721,-4.115 -5.977,-4.038 -6.255,-3.959C-6.554,-3.868 -7.563,-3.585 -7.851,-3.49C-8.912,-3.174 -9.972,-2.851 -11.04,-2.559C-12.107,-2.262 -13.155,-1.967 -14.176,-1.702C-15.19,-1.439 -16.178,-1.19 -17.114,-0.959C-18.049,-0.742 -18.935,-0.541 -19.752,-0.356C-21.399,-0.009 -22.773,0.245 -23.741,0.405C-24.71,0.558 -25.262,0.635 -25.262,0.635C-25.262,0.635 -24.72,0.503 -23.777,0.257C-22.839,0.004 -21.509,-0.385 -19.929,-0.888C-19.146,-1.15 -18.298,-1.436 -17.401,-1.743C-16.509,-2.06 -15.572,-2.4 -14.605,-2.761C-13.638,-3.116 -12.653,-3.509 -11.651,-3.899C-10.65,-4.286 -9.637,-4.711 -8.617,-5.129C-8.327,-5.245 -7.372,-5.642 -7.106,-5.782C-6.869,-5.892 -6.607,-6.001 -6.397,-6.118C-6.265,-6.19 -5.821,-6.426 -5.691,-6.495C-4.754,-6.982 -3.857,-7.508 -2.987,-7.997C-2.128,-8.496 -1.312,-9.005 -0.534,-9.47C0.228,-9.952 0.938,-10.42 1.598,-10.843C1.967,-11.097 2.314,-11.335 2.646,-11.562C2.346,-11.452 2.039,-11.34 1.717,-11.223C1.196,-11.038 0.621,-10.862 0,-10.658"/> </g> <g transform="matrix(1.74301,0,0,1.74301,359.22,349.814)"> <path style="fill-rule:nonzero;" d="M0,-25.298C0,-25.298 49.091,-3.434 90.756,-3.023C132.041,-2.614 194.791,-29.703 194.791,-29.703L197.385,-23.371C197.385,-23.371 131.183,2.753 88.693,3.58C46.204,4.405 -3.299,-19.523 -3.299,-19.523L0,-25.298"/> </g> <g transform="matrix(1.74301,0,0,1.74301,513.752,270.372)"> <path style="fill:white;" d="M0,-21.074C0,-21.074 -2.581,-5.592 1.29,2.58C5.161,10.75 4.73,16.771 5.59,21.501C6.451,26.233 4.3,39.564 0,39.564C-4.3,39.564 -43.006,32.684 -49.457,30.103C-55.908,27.523 -58.058,24.943 -56.768,19.781C-55.477,14.621 -44.726,3.439 -37.845,-0.431C-30.964,-4.302 -22.793,-12.043 -18.923,-17.633C-15.052,-23.223 -14.314,-34.586 -14.253,-41.162C-14.192,-47.737 -13.762,-50.317 -12.041,-55.478C-10.321,-60.638 -9.892,-47.738 -6.451,-37.846C-3.01,-27.954 0,-21.074 0,-21.074"/> </g> <g transform="matrix(1.74301,0,0,1.74301,514.501,370.813)"> <path style="fill:white;" d="M0,-3.869C0,-3.869 -30.533,-8.171 -40.425,-10.751C-50.317,-13.331 -57.197,-15.481 -57.197,-15.481L-39.135,-7.74L-56.337,-11.18L-40.425,-4.728L-55.907,-6.881C-55.907,-6.881 -34.404,2.151 -22.363,6.021C-10.321,9.892 3.011,11.612 3.011,11.612L-12.041,5.162L0,5.162L-10.751,0.86L0,-3.869Z"/> </g> <g transform="matrix(1.74301,0,0,1.74301,396.066,154.183)"> <path style="fill:white;" d="M0,84.291C0,84.291 1.72,70.099 8.601,58.918C15.482,47.735 25.591,42.592 29.674,34.405C33.757,26.217 38.706,18.923 43.436,15.912C48.165,12.901 52.467,14.192 55.478,11.182C58.486,8.171 52.731,1.236 47.306,2.151C41.881,3.064 43.436,0 37.844,9.892C32.255,19.783 24.083,29.243 15.052,34.833C6.021,40.425 4.729,47.306 -2.151,61.927C-9.031,76.55 -10.321,82.57 -10.321,82.57L0,84.291Z"/> </g> </g> <g transform="matrix(0.999816,0,0,0.999816,0.0572014,6.47572)" id="wordmark"> <g transform="matrix(0.971727,0,0,0.627148,67.778,929.861)"> <g transform="matrix(0.216658,0,0,0.470448,139.892,157.824)"> <path style="fill:none;stroke:white;stroke-width:5.28px;" d="M493.94,181.393L1242.15,181.393"/> </g> <g transform="matrix(2.77485,0,0,4.29946,-502.11,-2630.98)"> <g transform="matrix(12,0,0,12,268.671,666.507)"> <path style="fill:white;fill-rule:nonzero;" d="M0.701,-0.354C0.701,-0.299 0.692,-0.25 0.676,-0.207C0.66,-0.163 0.637,-0.126 0.607,-0.095C0.577,-0.064 0.542,-0.041 0.501,-0.025C0.459,-0.008 0.413,-0 0.363,-0L0.105,-0L0.105,-0.708L0.363,-0.708C0.413,-0.708 0.459,-0.699 0.501,-0.683C0.542,-0.667 0.577,-0.643 0.607,-0.613C0.637,-0.582 0.66,-0.545 0.676,-0.501C0.692,-0.457 0.701,-0.408 0.701,-0.354ZM0.648,-0.354C0.648,-0.403 0.641,-0.447 0.627,-0.486C0.613,-0.525 0.594,-0.557 0.569,-0.584C0.544,-0.611 0.515,-0.631 0.48,-0.645C0.444,-0.659 0.406,-0.666 0.363,-0.666L0.157,-0.666L0.157,-0.042L0.363,-0.042C0.406,-0.042 0.444,-0.049 0.48,-0.063C0.515,-0.077 0.544,-0.097 0.569,-0.124C0.594,-0.15 0.613,-0.183 0.627,-0.222C0.641,-0.26 0.648,-0.304 0.648,-0.354Z"/> </g> <g transform="matrix(12,0,0,12,281.151,666.507)"> <path style="fill:white;fill-rule:nonzero;" d="M0.529,-0.708L0.529,-0.665L0.157,-0.665L0.157,-0.379L0.467,-0.379L0.467,-0.338L0.157,-0.338L0.157,-0.043L0.529,-0.043L0.529,-0L0.105,-0L0.105,-0.708L0.529,-0.708Z"/> </g> <g transform="matrix(12,0,0,12,291.603,666.507)"> <path style="fill:white;fill-rule:nonzero;" d="M0.447,-0.622C0.444,-0.616 0.44,-0.613 0.434,-0.613C0.43,-0.613 0.424,-0.616 0.417,-0.622C0.41,-0.628 0.401,-0.635 0.39,-0.643C0.378,-0.65 0.363,-0.657 0.346,-0.664C0.328,-0.67 0.307,-0.673 0.281,-0.673C0.255,-0.673 0.233,-0.669 0.213,-0.662C0.194,-0.655 0.177,-0.645 0.164,-0.632C0.151,-0.619 0.141,-0.605 0.134,-0.588C0.127,-0.571 0.124,-0.554 0.124,-0.536C0.124,-0.511 0.129,-0.492 0.139,-0.476C0.149,-0.46 0.163,-0.447 0.18,-0.436C0.196,-0.425 0.215,-0.416 0.236,-0.408C0.257,-0.401 0.279,-0.393 0.302,-0.386C0.324,-0.379 0.346,-0.371 0.367,-0.362C0.388,-0.353 0.407,-0.342 0.424,-0.329C0.44,-0.315 0.454,-0.299 0.464,-0.279C0.474,-0.26 0.479,-0.236 0.479,-0.207C0.479,-0.177 0.474,-0.149 0.464,-0.123C0.454,-0.097 0.439,-0.074 0.42,-0.055C0.4,-0.035 0.377,-0.02 0.349,-0.009C0.321,0.002 0.289,0.008 0.253,0.008C0.206,0.008 0.166,-0 0.132,-0.017C0.098,-0.033 0.069,-0.056 0.044,-0.085L0.058,-0.107C0.062,-0.112 0.066,-0.114 0.072,-0.114C0.075,-0.114 0.078,-0.112 0.083,-0.108C0.088,-0.104 0.093,-0.099 0.1,-0.093C0.107,-0.087 0.115,-0.081 0.124,-0.074C0.133,-0.067 0.144,-0.061 0.157,-0.055C0.169,-0.049 0.183,-0.045 0.199,-0.041C0.215,-0.037 0.233,-0.035 0.254,-0.035C0.282,-0.035 0.307,-0.039 0.329,-0.047C0.35,-0.056 0.369,-0.067 0.384,-0.082C0.399,-0.097 0.411,-0.114 0.419,-0.134C0.427,-0.154 0.431,-0.176 0.431,-0.199C0.431,-0.224 0.426,-0.245 0.416,-0.261C0.406,-0.277 0.392,-0.29 0.376,-0.301C0.359,-0.312 0.34,-0.321 0.319,-0.329C0.298,-0.336 0.276,-0.343 0.254,-0.35C0.231,-0.357 0.209,-0.365 0.188,-0.374C0.167,-0.382 0.148,-0.393 0.132,-0.407C0.115,-0.42 0.101,-0.437 0.091,-0.457C0.081,-0.477 0.076,-0.503 0.076,-0.533C0.076,-0.557 0.081,-0.58 0.09,-0.602C0.098,-0.624 0.112,-0.643 0.129,-0.66C0.146,-0.677 0.168,-0.69 0.193,-0.7C0.219,-0.71 0.248,-0.716 0.281,-0.716C0.317,-0.716 0.35,-0.71 0.379,-0.698C0.408,-0.686 0.435,-0.669 0.459,-0.645L0.447,-0.622Z"/> </g> <g transform="matrix(12,0,0,12,301.233,666.507)"> <rect style="fill:white;fill-rule:nonzero;" height="0.708" width="0.052" y="-0.708" x="0.124"/> </g> <g transform="matrix(12,0,0,12,308.181,666.507)"> <path style="fill:white;fill-rule:nonzero;" d="M0.409,-0.034C0.433,-0.034 0.456,-0.035 0.476,-0.037C0.496,-0.04 0.514,-0.044 0.531,-0.049C0.548,-0.054 0.565,-0.06 0.58,-0.067C0.596,-0.074 0.611,-0.082 0.627,-0.091L0.627,-0.282L0.491,-0.282C0.487,-0.282 0.484,-0.283 0.482,-0.285C0.479,-0.287 0.478,-0.29 0.478,-0.293L0.478,-0.321L0.674,-0.321L0.674,-0.07C0.656,-0.057 0.638,-0.046 0.619,-0.037C0.6,-0.027 0.579,-0.019 0.558,-0.012C0.536,-0.006 0.513,-0.001 0.488,0.003C0.462,0.006 0.435,0.008 0.406,0.008C0.355,0.008 0.308,-0.001 0.266,-0.018C0.224,-0.035 0.187,-0.059 0.157,-0.091C0.127,-0.122 0.104,-0.16 0.087,-0.205C0.07,-0.25 0.062,-0.299 0.062,-0.354C0.062,-0.409 0.07,-0.458 0.087,-0.503C0.104,-0.547 0.127,-0.585 0.158,-0.617C0.189,-0.648 0.226,-0.673 0.27,-0.69C0.314,-0.707 0.363,-0.716 0.417,-0.716C0.444,-0.716 0.469,-0.714 0.492,-0.71C0.515,-0.706 0.536,-0.701 0.556,-0.694C0.575,-0.687 0.594,-0.678 0.611,-0.667C0.628,-0.657 0.644,-0.645 0.66,-0.631L0.646,-0.609C0.643,-0.604 0.639,-0.602 0.634,-0.602C0.631,-0.602 0.628,-0.602 0.625,-0.604C0.62,-0.606 0.613,-0.61 0.603,-0.618C0.594,-0.625 0.581,-0.632 0.565,-0.641C0.549,-0.649 0.528,-0.656 0.504,-0.662C0.48,-0.668 0.45,-0.672 0.416,-0.672C0.37,-0.672 0.328,-0.664 0.291,-0.65C0.254,-0.635 0.222,-0.614 0.196,-0.587C0.17,-0.559 0.15,-0.526 0.136,-0.487C0.122,-0.447 0.115,-0.403 0.115,-0.354C0.115,-0.304 0.122,-0.259 0.136,-0.22C0.15,-0.18 0.17,-0.146 0.196,-0.119C0.222,-0.091 0.253,-0.07 0.289,-0.056C0.325,-0.041 0.365,-0.034 0.409,-0.034Z"/> </g> <g transform="matrix(12,0,0,12,320.523,666.507)"> <path style="fill:white;fill-rule:nonzero;" d="M0.13,-0.708C0.135,-0.708 0.138,-0.707 0.141,-0.706C0.144,-0.705 0.147,-0.702 0.15,-0.698L0.608,-0.085C0.607,-0.095 0.606,-0.105 0.606,-0.114L0.606,-0.708L0.651,-0.708L0.651,-0L0.627,-0C0.619,-0 0.613,-0.003 0.608,-0.01L0.148,-0.624C0.149,-0.614 0.15,-0.604 0.15,-0.596L0.15,-0L0.105,-0L0.105,-0.708L0.13,-0.708Z"/> </g> </g> <g transform="matrix(0.216658,0,0,0.470448,139.892,104.657)"> <path style="fill:none;stroke:white;stroke-width:5.28px;" d="M493.94,181.393L1242.15,181.393"/> </g> </g> <g transform="matrix(0.767964,0,0,0.49564,133.279,962.679)"> <g transform="matrix(0.280932,0,0,0.370874,128.704,-77.801)"> <rect style="fill:white;" height="181.393" width="730.064" y="462.755" x="350.284"/> <path style="fill:white;" d="M1081.28,462.755L1081.28,644.148C1081.28,644.75 1080.86,645.238 1080.35,645.238L350.284,645.238C349.771,645.238 349.355,644.75 349.355,644.148L349.355,462.755C349.355,462.152 349.771,461.664 350.284,461.664L1080.35,461.664C1080.86,461.664 1081.28,462.152 1081.28,462.755ZM1080.35,462.755L350.284,462.755L350.284,644.148L1080.35,644.148L1080.35,462.755Z"/> </g> <g transform="matrix(3.67599,0,0,5.69573,-754.767,-3643.99)"> <g transform="matrix(12,0,0,12,268.671,666.507)"> <path style="fill-rule:nonzero;" d="M0.405,-0L0.079,-0L0.079,-0.72L0.428,-0.72C0.516,-0.718 0.579,-0.693 0.616,-0.643C0.638,-0.612 0.649,-0.576 0.649,-0.533C0.649,-0.489 0.638,-0.454 0.616,-0.427C0.603,-0.412 0.585,-0.399 0.561,-0.386C0.598,-0.373 0.626,-0.352 0.644,-0.323C0.663,-0.294 0.672,-0.259 0.672,-0.217C0.672,-0.175 0.662,-0.136 0.64,-0.103C0.626,-0.08 0.609,-0.061 0.589,-0.046C0.566,-0.028 0.538,-0.016 0.507,-0.01C0.476,-0.003 0.442,-0 0.405,-0ZM0.401,-0.317L0.222,-0.317L0.222,-0.125L0.399,-0.125C0.431,-0.125 0.455,-0.129 0.473,-0.138C0.505,-0.153 0.521,-0.183 0.521,-0.228C0.521,-0.265 0.505,-0.291 0.474,-0.305C0.457,-0.313 0.433,-0.317 0.401,-0.317ZM0.476,-0.454C0.496,-0.466 0.505,-0.487 0.505,-0.517C0.505,-0.551 0.492,-0.573 0.466,-0.583C0.444,-0.591 0.415,-0.595 0.38,-0.595L0.222,-0.595L0.222,-0.436L0.399,-0.436C0.431,-0.436 0.456,-0.442 0.476,-0.454Z"/> </g> <g transform="matrix(12,0,0,12,277.337,666.507)"> <path style="fill-rule:nonzero;" d="M0.498,-0.148L0.232,-0.148L0.183,-0L0.025,-0L0.282,-0.72L0.452,-0.72L0.707,-0L0.544,-0L0.498,-0.148ZM0.456,-0.272L0.366,-0.555L0.273,-0.272L0.456,-0.272Z"/> </g> <g transform="matrix(12,0,0,12,286.003,666.507)"> <path style="fill-rule:nonzero;" d="M0.658,-0L0.508,-0L0.214,-0.511L0.214,-0L0.074,-0L0.074,-0.72L0.231,-0.72L0.518,-0.217L0.518,-0.72L0.658,-0.72L0.658,-0Z"/> </g> <g transform="matrix(12,0,0,12,294.669,666.507)"> <path style="fill-rule:nonzero;" d="M0.386,-0L0.076,-0L0.076,-0.72L0.386,-0.72C0.431,-0.719 0.468,-0.714 0.498,-0.704C0.548,-0.688 0.589,-0.657 0.62,-0.613C0.645,-0.577 0.662,-0.538 0.671,-0.497C0.681,-0.455 0.685,-0.415 0.685,-0.377C0.685,-0.282 0.666,-0.201 0.627,-0.134C0.575,-0.045 0.495,-0 0.386,-0ZM0.498,-0.536C0.475,-0.575 0.429,-0.595 0.361,-0.595L0.222,-0.595L0.222,-0.125L0.361,-0.125C0.432,-0.125 0.481,-0.16 0.509,-0.23C0.525,-0.268 0.532,-0.314 0.532,-0.367C0.532,-0.44 0.521,-0.497 0.498,-0.536Z"/> </g> <g transform="matrix(12,0,0,12,303.335,666.507)"> <rect style="fill-rule:nonzero;" height="0.72" width="0.149" y="-0.72" x="0.064"/> </g> <g transform="matrix(12,0,0,12,306.669,666.507)"> <path style="fill-rule:nonzero;" d="M0.599,-0.72L0.599,-0.592L0.384,-0.592L0.384,-0L0.232,-0L0.232,-0.592L0.016,-0.592L0.016,-0.72L0.599,-0.72Z"/> </g> <g transform="matrix(12,0,0,12,313.999,666.507)"> <path style="fill-rule:nonzero;" d="M0.337,-0.104C0.373,-0.104 0.402,-0.108 0.424,-0.116C0.466,-0.131 0.487,-0.159 0.487,-0.199C0.487,-0.223 0.476,-0.241 0.456,-0.254C0.435,-0.267 0.402,-0.278 0.357,-0.288L0.281,-0.305C0.206,-0.322 0.155,-0.34 0.126,-0.36C0.077,-0.394 0.053,-0.445 0.053,-0.516C0.053,-0.581 0.077,-0.634 0.124,-0.677C0.17,-0.719 0.239,-0.741 0.33,-0.741C0.406,-0.741 0.471,-0.721 0.524,-0.68C0.578,-0.64 0.606,-0.582 0.608,-0.505L0.464,-0.505C0.461,-0.549 0.442,-0.579 0.407,-0.598C0.384,-0.61 0.355,-0.616 0.32,-0.616C0.281,-0.616 0.25,-0.608 0.227,-0.592C0.204,-0.577 0.192,-0.555 0.192,-0.527C0.192,-0.501 0.204,-0.482 0.227,-0.469C0.241,-0.461 0.272,-0.451 0.32,-0.439L0.444,-0.41C0.499,-0.397 0.54,-0.379 0.567,-0.357C0.61,-0.324 0.632,-0.275 0.632,-0.21C0.632,-0.145 0.607,-0.09 0.556,-0.047C0.506,-0.003 0.435,0.019 0.343,0.019C0.25,0.019 0.176,-0.003 0.122,-0.046C0.068,-0.088 0.042,-0.147 0.042,-0.222L0.185,-0.222C0.19,-0.189 0.199,-0.165 0.212,-0.148C0.236,-0.119 0.278,-0.104 0.337,-0.104Z"/> </g> </g> </g> </g> </g> </g> </g> </g> </svg>